<svg width="620" height="584" viewBox="0 0 620 584" fill="none" xmlns="http://www.w3.org/2000/svg">
<g clip-path="url(#clip0_190_5823)">
<rect opacity="0.1" y="-0.402344" width="620" height="584" fill="#4C73FF"/>
<path d="M427.169 161.368C483.065 211.959 520.464 272.314 535.764 328.977C551.065 385.647 544.248 438.552 511.834 474.364C479.421 510.176 427.455 522.216 369.546 512.623C311.643 503.03 247.87 471.813 191.975 421.223C136.079 370.632 98.6795 310.277 83.3803 253.613C68.0794 196.944 74.8961 144.039 107.31 108.227C139.723 72.4153 191.689 60.3747 249.598 69.9681C307.501 79.5605 371.274 110.777 427.169 161.368Z" fill="#4C73FF" stroke="#E2E9FF"/>
<path d="M353.872 248.613C399.198 289.638 432.274 335.537 449.122 376.562C465.985 417.625 466.529 453.628 447.123 475.067C427.718 496.507 391.84 499.544 349.304 486.845C306.808 474.158 257.85 445.807 212.523 404.782C167.197 363.757 134.121 317.858 117.274 276.833C100.411 235.771 99.8668 199.768 119.272 178.328C138.677 156.888 174.556 153.851 217.091 166.55C259.587 179.237 308.545 207.588 353.872 248.613Z" fill="#E2E9FF" stroke="#E2E9FF"/>
<path d="M413.288 269.492L458.074 214.18L464.202 219.432L419.416 274.745L413.288 269.492Z" fill="white"/>
<path d="M390.7 244.897L397.253 239.936C399.855 242.687 401.945 244.367 403.526 244.975C405.107 245.583 406.641 245.321 408.13 244.188C409.664 243.103 411.592 241.372 413.914 238.993L449.467 202.775L455.012 208.64L420.179 244.314C417.712 246.83 415.352 248.878 413.099 250.459C410.892 252.089 408.633 253.036 406.323 253.3C404.059 253.612 401.653 253.098 399.107 251.758C396.605 250.466 393.803 248.179 390.7 244.897Z" fill="white"/>
<path d="M393.037 247.196C390.999 245.29 389.245 243.422 387.774 241.591C386.348 239.712 385.297 237.773 384.619 235.775C383.942 233.777 383.777 231.667 384.126 229.447C384.521 227.178 385.542 224.676 387.189 221.943L393.865 223.412C392.68 225.942 392.072 228.148 392.041 230.029C392.01 231.91 392.589 233.77 393.778 235.61C395.016 237.496 396.872 239.596 399.346 241.91C400.365 242.863 400.82 243.835 400.712 244.825C400.698 245.813 400.328 246.695 399.602 247.471C398.876 248.247 397.856 248.657 396.541 248.701C395.272 248.696 394.104 248.195 393.037 247.196ZM346.685 203.837L352.922 198.482C355.444 200.842 358.1 202.962 360.888 204.843C363.677 206.724 366.576 208.39 369.585 209.84C372.594 211.291 375.642 212.505 378.73 213.483C381.911 214.458 385.107 215.174 388.318 215.631C388.101 213.335 387.553 211.004 386.675 208.636C385.797 206.268 384.568 203.936 382.988 201.639C381.501 199.339 379.666 197.168 377.483 195.126C376.707 194.399 375.957 193.743 375.232 193.156C374.508 192.569 373.738 192.031 372.922 191.541C372.153 191.003 371.24 190.423 370.186 189.8L374.195 183.181C375.867 184.018 377.449 184.952 378.941 185.983C380.477 186.966 381.852 188.024 383.065 189.159C385.587 191.518 387.572 193.967 389.02 196.503C390.513 198.991 391.675 201.443 392.508 203.859C393.389 206.321 394.149 208.669 394.787 210.903C395.474 213.183 396.226 215.297 397.043 217.243C397.905 219.141 399.088 220.794 400.592 222.201L402.12 223.63L397.729 229.346C395.643 227.394 393.454 225.893 391.163 224.841C388.872 223.79 386.447 222.931 383.887 222.264C381.421 221.594 378.789 220.907 375.993 220.201C373.242 219.447 370.32 218.487 367.226 217.321C364.178 216.107 360.926 214.429 357.471 212.289C354.064 210.194 350.469 207.376 346.685 203.837Z" fill="white"/>
<path d="M293.777 160.628L301.062 156.11C304.138 158.747 307.542 161.359 311.275 163.946C315.05 166.482 319.038 168.719 323.239 170.657C327.533 172.588 331.953 174.014 336.499 174.937C341.046 175.859 345.603 176.003 350.171 175.369L352.538 182.253C351.089 183.024 349.987 183.698 349.231 184.274C348.517 184.8 347.923 185.341 347.447 185.895C346.799 186.652 346.449 187.621 346.399 188.803C346.392 189.934 346.95 191.375 348.074 193.126C349.249 194.92 351.248 197.027 354.072 199.448C355.131 200.356 355.629 201.307 355.564 202.301C355.593 203.288 355.261 204.185 354.569 204.992C353.878 205.799 352.876 206.253 351.565 206.354C350.297 206.404 349.108 205.954 347.999 205.003C344.771 202.236 342.202 199.466 340.293 196.692C338.477 193.911 337.591 191.27 337.634 188.77C337.771 186.263 339.057 183.997 341.492 181.972L342.465 183.593C338.891 183.68 335.109 183.194 331.117 182.135C327.219 181.068 323.167 179.519 318.959 177.487C314.802 175.499 310.587 173.067 306.314 170.192C302.092 167.361 297.913 164.173 293.777 160.628ZM293.777 160.628C289.289 156.78 285.589 153.084 282.678 149.539C279.774 146.088 277.707 142.785 276.475 139.629C275.242 136.473 274.868 133.44 275.351 130.529C275.877 127.568 277.328 124.7 279.706 121.926C280.787 120.665 281.99 119.466 283.316 118.327C284.685 117.139 286.104 115.993 287.574 114.891C289.094 113.831 290.571 112.823 292.005 111.864L296.447 118.165C295.597 118.749 294.591 119.462 293.431 120.305C292.315 121.098 291.201 121.937 290.092 122.823C289.033 123.753 288.136 124.646 287.401 125.504C285.153 128.126 283.993 130.806 283.921 133.544C283.943 136.275 285.293 139.445 287.974 143.055C290.697 146.614 295.06 150.966 301.062 156.11L299.332 161.19L293.777 160.628ZM286.98 179.735C285.92 178.828 285.337 177.671 285.229 176.266C285.128 174.955 285.51 173.795 286.374 172.786C287.239 171.777 288.348 171.197 289.703 171.046C291.108 170.938 292.34 171.338 293.399 172.246C294.408 173.11 294.941 174.224 294.999 175.585C295.107 176.99 294.728 178.197 293.864 179.206C292.999 180.214 291.886 180.748 290.524 180.805C289.17 180.957 287.988 180.6 286.98 179.735Z" fill="white"/>
</g>
<defs>
<clipPath id="clip0_190_5823">
<rect width="620" height="584" fill="white"/>
</clipPath>
</defs>
</svg>
