<svg width="1440" height="1719" viewBox="0 0 1440 1719" fill="none" xmlns="http://www.w3.org/2000/svg">
<circle cx="152.524" cy="950.513" r="105.492" transform="rotate(-16.1461 152.524 950.513)" fill="#E7ECFE" stroke="#4C73FF" stroke-width="3"/>
<path d="M159.364 1024.74C147.966 1028.04 137.956 1027.75 129.334 1023.86C120.675 1019.84 114.881 1012.77 111.952 1002.66C110.135 996.38 110.469 989.621 112.952 982.377C115.399 975.006 120.508 967.003 128.28 958.368C122.591 955.018 118.13 952.076 114.898 949.541C111.629 946.879 109.138 944.268 107.425 941.71C105.841 939.115 104.53 936.025 103.492 932.439C102.046 927.444 102.192 922.196 103.931 916.695C105.633 911.067 108.747 906.001 113.274 901.498C117.891 896.83 123.722 893.476 130.766 891.437C141.012 888.471 149.702 888.522 156.837 891.593C164.064 894.498 168.733 899.6 170.847 906.901C172.515 912.664 171.328 918.63 167.283 924.798C163.367 930.928 157.129 938.148 148.568 946.456C149.761 947.221 151.101 948.013 152.587 948.832C154.074 949.651 155.56 950.47 157.046 951.289L196.188 972.855C198.088 966.475 199.593 959.446 200.702 951.768C201.773 943.962 202.513 935.489 202.92 926.349L181.924 924.307L181.034 921.233L227.141 907.885L228.031 910.959L213.567 922.85C212.192 932.964 210.669 942.567 208.998 951.657C207.289 960.619 205.166 968.868 202.629 976.404L229.879 991.418L247.826 993.718L248.716 996.792L214.904 1006.58L194.591 995.388C190.715 1002.62 185.892 1008.73 180.122 1013.74C174.48 1018.7 167.561 1022.37 159.364 1024.74ZM120.928 922.185C122.189 926.54 124.51 930.24 127.89 933.287C131.234 936.206 136.081 939.522 142.431 943.236C146.751 937.543 149.828 932.349 151.662 927.654C153.586 922.794 153.788 917.739 152.268 912.488C150.859 907.621 148.237 904.077 144.401 901.856C140.693 899.598 136.47 899.155 131.732 900.527C127.249 901.824 123.916 904.455 121.732 908.419C119.676 912.345 119.408 916.934 120.928 922.185ZM129.99 991.603C132.363 999.8 136.76 1005.4 143.181 1008.4C149.601 1011.4 156.462 1011.84 163.762 1009.73C173.624 1006.87 181.588 1000.82 187.654 991.566L150.439 970.9C147.339 969.299 144.467 967.771 141.825 966.315C139.145 964.731 136.649 963.302 134.337 962.028C130.384 968.031 128.24 973.093 127.907 977.215C127.701 981.3 128.396 986.096 129.99 991.603Z" fill="#4C73FF"/>
<circle cx="291.365" cy="1033.39" r="105.492" transform="rotate(-16.1461 291.365 1033.39)" fill="#E7ECFE" stroke="#4C73FF" stroke-width="3"/>
<path d="M280.964 999.152C277.762 1000.08 274.528 999.696 271.262 998.004C268.087 996.147 266.036 993.618 265.109 990.416C264.182 987.214 264.583 984.044 266.312 980.906C268.132 977.603 270.643 975.488 273.845 974.561C277.047 973.634 280.235 974.1 283.41 975.956C286.676 977.648 288.773 980.095 289.7 983.297C290.627 986.499 290.18 989.751 288.36 993.054C286.631 996.192 284.166 998.225 280.964 999.152ZM299.304 1105.65L283.356 1015.32L287.774 1014.05L322.549 1098.92L299.304 1105.65Z" fill="#4C73FF"/>
<circle cx="446.209" cy="1082.9" r="105.492" transform="rotate(-16.1461 446.209 1082.9)" fill="#E7ECFE" stroke="#4C73FF" stroke-width="3"/>
<path d="M452.985 1178.84L449.143 1179.95L447.808 1175.34L452.995 1173.84C458.503 1172.25 462.137 1169.46 463.9 1165.48C465.791 1161.46 465.976 1156.83 464.456 1151.58C463.01 1146.58 460.933 1142.05 458.227 1137.97C455.611 1133.73 452.987 1129.7 450.355 1125.88C447.685 1121.94 445.702 1117.72 444.404 1113.24C443.032 1108.5 443.025 1103.92 444.383 1099.5C445.742 1095.09 449.132 1090.5 454.555 1085.73C447.426 1084.6 442.108 1082.54 438.599 1079.53C435.091 1076.52 432.65 1072.64 431.278 1067.9C429.981 1063.42 429.424 1058.86 429.61 1054.23C429.758 1049.47 429.823 1044.66 429.806 1039.8C429.88 1034.79 429.194 1029.78 427.748 1024.78C426.228 1019.53 423.596 1015.71 419.851 1013.33C416.235 1010.9 411.673 1010.49 406.165 1012.08L400.978 1013.59L399.644 1008.98L403.486 1007.86C414.116 1004.79 422.486 1004.93 428.597 1008.3C434.836 1011.63 439.049 1017.07 441.237 1024.63C442.757 1029.88 443.434 1035.09 443.269 1040.28C443.067 1045.33 442.828 1050.26 442.552 1055.06C442.276 1059.86 442.768 1064.44 444.029 1068.79C445.252 1073.02 447.499 1076.46 450.768 1079.13C454.128 1081.62 458.946 1081.96 465.222 1080.15L470.025 1078.76L471.304 1083.17L466.501 1084.56C460.226 1086.38 456.353 1089.31 454.884 1093.34C453.505 1097.21 453.447 1101.32 454.707 1105.68C455.968 1110.03 457.997 1114.16 460.794 1118.07C463.592 1121.98 466.445 1126.08 469.354 1130.38C472.226 1134.54 474.422 1139.25 475.942 1144.5C478.13 1152.06 477.476 1158.91 473.981 1165.06C470.614 1171.17 463.616 1175.76 452.985 1178.84Z" fill="#4C73FF"/>
<circle cx="607.503" cy="1091.29" r="105.492" transform="rotate(-16.1461 607.503 1091.29)" fill="#E7ECFE" stroke="#4C73FF" stroke-width="3"/>
<path d="M573.024 1123.11C570.539 1114.53 570.597 1107.29 573.195 1101.41C575.756 1095.39 580.367 1091.42 587.027 1089.49C591.637 1088.16 595.803 1087.92 599.524 1088.79C603.336 1089.49 606.856 1090.62 610.085 1092.18C613.442 1093.71 616.661 1095 619.742 1096.05C622.785 1096.97 625.908 1096.97 629.11 1096.05C633.208 1094.86 635.764 1092.66 636.779 1089.45C637.756 1086.12 637.373 1081.44 635.631 1075.42L645.813 1072.47C648.297 1081.05 648.258 1088.35 645.697 1094.37C643.227 1100.22 638.598 1104.13 631.81 1106.09C627.199 1107.43 622.988 1107.74 619.176 1107.04C615.455 1106.18 611.916 1104.98 608.559 1103.45C605.33 1101.89 602.13 1100.66 598.958 1099.78C595.878 1098.73 592.8 1098.65 589.727 1099.54C582.042 1101.76 579.869 1108.64 583.206 1120.16L573.024 1123.11Z" fill="#4C73FF"/>
<circle cx="1295.52" cy="868.638" r="105.492" transform="rotate(-16.1461 1295.52 868.638)" fill="#E7ECFE" stroke="#4C73FF" stroke-width="3"/>
<path d="M1302.26 895.741L1294.81 869.998L1259.65 880.176L1256.76 870.186L1291.91 860.008L1283.9 832.344L1294.28 829.34L1302.29 857.004L1337.44 846.826L1340.34 856.816L1305.18 866.994L1312.63 892.737L1302.26 895.741ZM1272.16 923.401L1269.27 913.411L1349.96 890.051L1352.85 900.041L1272.16 923.401Z" fill="#4C73FF"/>
<circle cx="1110.96" cy="877.79" r="105.492" transform="rotate(-16.1461 1110.96 877.79)" fill="#E7ECFE" stroke="#4C73FF" stroke-width="3"/>
<path d="M1159.72 913.068L1080.45 869.39L1093.82 919.865L1075.48 909.764L1058.95 848.339L1119.52 829.556L1138.04 839.601L1088.29 855.462L1167.31 899.003L1159.72 913.068Z" fill="#4C73FF"/>
<circle cx="793.038" cy="1061.46" r="105.492" transform="rotate(-16.1461 793.038 1061.46)" fill="#E7ECFE" stroke="#4C73FF" stroke-width="3"/>
<path d="M772.616 1094.67L758.711 1046.64L776.386 1041.53L776.65 1093.5L772.616 1094.67ZM807.58 1084.55L793.676 1036.52L811.35 1031.4L811.614 1083.38L807.58 1084.55Z" fill="#4C73FF"/>
<circle cx="951.535" cy="974.753" r="105.492" transform="rotate(-16.1461 951.535 974.753)" fill="#E7ECFE" stroke="#4C73FF" stroke-width="3"/>
<path d="M932.496 1025.4L943.976 985.22L912.808 957.39L915.305 956.667L963.572 979.547L934.994 1024.67L932.496 1025.4ZM967.653 1015.22L979.133 975.042L947.964 947.212L950.462 946.489L998.728 969.369L970.15 1014.5L967.653 1015.22Z" fill="#4C73FF"/>
<path d="M-166.084 814.22C-166.084 814.22 -103.714 729.203 -32.7807 743.986C39.3479 759.018 93.6333 867.454 93.6333 867.454" stroke="#4C73FF" stroke-width="3"/>
<path d="M1618.04 746.526C1618.04 746.526 1562.12 657.136 1490.29 666.642C1417.25 676.307 1355.1 780.439 1355.1 780.439" stroke="#4C73FF" stroke-width="3"/>
</svg>
