<svg width="1196" height="906" viewBox="0 0 1196 906" fill="none" xmlns="http://www.w3.org/2000/svg">
<path d="M297.599 209.789V276.729" stroke="white" stroke-width="3"/>
<path d="M747.654 243.26L854.462 243.26" stroke="white" stroke-width="3"/>
<path d="M297.599 243.26L404.409 243.26" stroke="white" stroke-width="3"/>
<path d="M854.462 209.789V276.729" stroke="white" stroke-width="3"/>
<path d="M834.158 128.383H927.469" stroke="white" stroke-width="3"/>
<path d="M927.469 94.9141V161.854" stroke="white" stroke-width="3"/>
<path d="M862.126 128.385L224.593 128.385" stroke="white" stroke-width="3"/>
<path d="M224.594 94.9141V161.854" stroke="white" stroke-width="3"/>
<path d="M455.273 272.458C453.079 272.458 451.073 272.201 449.253 271.688C447.433 271.174 445.776 270.358 444.283 269.238C442.976 268.304 441.973 267.348 441.273 266.368C440.573 265.388 440.223 264.361 440.223 263.288C440.223 262.214 440.433 261.561 440.853 261.328C441.273 261.048 441.926 260.908 442.813 260.908H446.313L446.873 261.468V263.778C446.873 265.364 447.549 266.671 448.903 267.698C450.256 268.724 452.356 269.238 455.203 269.238C458.096 269.238 460.313 268.351 461.853 266.578C463.439 264.804 464.233 262.518 464.233 259.718C464.233 256.544 463.369 254.048 461.643 252.228C459.963 250.361 456.999 249.428 452.753 249.428H448.693V246.278H451.003C454.176 246.278 456.766 245.391 458.773 243.618C460.826 241.798 461.853 239.371 461.853 236.338C461.853 233.444 461.223 231.344 459.963 230.038C458.749 228.731 457.023 228.078 454.783 228.078C452.869 228.078 451.283 228.638 450.023 229.758C448.809 230.878 448.203 232.394 448.203 234.308V236.968L447.643 237.528H444.283C443.349 237.528 442.649 237.388 442.183 237.108C441.763 236.828 441.553 236.128 441.553 235.008C441.553 233.794 441.949 232.581 442.743 231.368C443.583 230.108 444.819 228.988 446.453 228.008C448.133 226.934 449.719 226.141 451.213 225.628C452.706 225.114 454.503 224.858 456.603 224.858C459.076 224.858 461.293 225.348 463.253 226.328C465.213 227.261 466.753 228.568 467.873 230.248C469.039 231.881 469.623 233.771 469.623 235.918C469.623 238.391 468.643 240.608 466.683 242.568C464.723 244.528 462.109 245.904 458.843 246.698C463.229 247.304 466.519 248.728 468.713 250.968C470.953 253.161 472.073 255.961 472.073 259.368C472.073 261.748 471.303 263.941 469.763 265.948C468.223 267.908 466.169 269.494 463.603 270.708C461.083 271.874 458.306 272.458 455.273 272.458ZM487.24 271.758V270.638L493.61 267.908V258.528H474.5V256.988L498.51 225.558H500.61V253.628H508.94V258.528H500.61V267.908L506.28 270.638V271.758H487.24ZM481.22 253.628H493.61V236.828L481.22 253.628ZM522.077 247.608C518.903 247.608 516.407 246.324 514.587 243.758C512.767 241.144 511.857 237.691 511.857 233.398C511.857 230.738 512.3 228.334 513.187 226.188C514.073 224.041 515.287 222.361 516.827 221.148C518.367 219.888 520.117 219.258 522.077 219.258C525.25 219.258 527.747 220.564 529.567 223.178C531.387 225.744 532.297 229.174 532.297 233.468C532.297 236.081 531.853 238.461 530.967 240.608C530.08 242.754 528.867 244.458 527.327 245.718C525.787 246.978 524.037 247.608 522.077 247.608ZM522.497 245.718C523.337 245.718 524.037 245.181 524.597 244.108C525.157 242.988 525.553 241.588 525.787 239.908C526.067 238.181 526.207 236.384 526.207 234.518C526.207 232.138 526.043 229.944 525.717 227.938C525.437 225.884 524.947 224.251 524.247 223.038C523.547 221.778 522.66 221.148 521.587 221.148C520.793 221.148 520.117 221.684 519.557 222.758C518.997 223.831 518.577 225.231 518.297 226.958C518.063 228.638 517.947 230.411 517.947 232.278C517.947 234.704 518.11 236.944 518.437 238.998C518.763 241.004 519.253 242.638 519.907 243.898C520.607 245.111 521.47 245.718 522.497 245.718ZM520.047 270.708L552.737 219.258L555.397 221.008L522.777 272.458L520.047 270.708ZM551.967 272.458C548.793 272.458 546.297 271.174 544.477 268.608C542.657 265.994 541.747 262.541 541.747 258.248C541.747 255.588 542.19 253.184 543.077 251.038C543.963 248.891 545.177 247.211 546.717 245.998C548.257 244.738 550.007 244.108 551.967 244.108C555.14 244.108 557.637 245.414 559.457 248.028C561.277 250.594 562.187 254.024 562.187 258.318C562.187 260.931 561.743 263.311 560.857 265.458C559.97 267.604 558.757 269.308 557.217 270.568C555.677 271.828 553.927 272.458 551.967 272.458ZM552.387 270.568C553.227 270.568 553.927 270.031 554.487 268.958C555.047 267.838 555.443 266.438 555.677 264.758C555.957 263.031 556.097 261.234 556.097 259.368C556.097 256.988 555.933 254.794 555.607 252.788C555.327 250.734 554.837 249.101 554.137 247.888C553.437 246.628 552.55 245.998 551.477 245.998C550.683 245.998 550.007 246.534 549.447 247.608C548.887 248.681 548.467 250.081 548.187 251.808C547.953 253.488 547.837 255.261 547.837 257.128C547.837 259.554 548 261.794 548.327 263.848C548.653 265.854 549.143 267.488 549.797 268.748C550.497 269.961 551.36 270.568 552.387 270.568ZM566.37 256.218V251.318H585.62V256.218H566.37ZM603.262 272.458C600.928 272.458 598.922 272.178 597.242 271.618C595.562 271.011 594.348 270.148 593.602 269.028C593.228 268.514 593.042 268.048 593.042 267.628C593.042 267.021 593.462 266.391 594.302 265.738L597.032 263.638H597.802L598.502 264.968C599.202 266.134 600.135 267.114 601.302 267.908C602.515 268.701 604.055 269.098 605.922 269.098C608.628 269.098 610.892 268.141 612.712 266.228C614.578 264.314 615.512 261.724 615.512 258.458C615.512 256.498 615.092 254.701 614.252 253.068C613.458 251.388 612.058 250.058 610.052 249.078C608.092 248.051 605.385 247.538 601.932 247.538C600.018 247.538 597.778 247.748 595.212 248.168V225.558H618.102V231.368H598.642V241.518C600.135 241.424 601.605 241.378 603.052 241.378C607.578 241.378 611.195 242.078 613.902 243.478C616.655 244.831 618.638 246.604 619.852 248.798C621.065 250.944 621.672 253.208 621.672 255.588C621.672 258.994 620.878 261.981 619.292 264.548C617.705 267.068 615.512 269.028 612.712 270.428C609.958 271.781 606.808 272.458 603.262 272.458ZM643.419 272.458C640.246 272.458 637.469 271.711 635.089 270.218C632.709 268.724 630.866 266.694 629.559 264.128C628.252 261.514 627.599 258.551 627.599 255.238C627.599 250.291 628.719 245.811 630.959 241.798C633.199 237.738 636.372 234.284 640.479 231.438C644.586 228.544 649.486 226.351 655.179 224.858V226.958C649.532 228.731 645.029 231.648 641.669 235.708C638.356 239.768 636.326 244.551 635.579 250.058C636.839 248.378 638.402 247.048 640.269 246.068C642.136 245.041 644.259 244.528 646.639 244.528C649.159 244.528 651.329 245.111 653.149 246.278C655.016 247.444 656.462 249.054 657.489 251.108C658.516 253.114 659.029 255.378 659.029 257.898C659.029 260.324 658.446 262.658 657.279 264.898C656.159 267.138 654.432 268.958 652.099 270.358C649.766 271.758 646.872 272.458 643.419 272.458ZM635.299 254.748C635.299 259.788 636.092 263.451 637.679 265.738C639.266 268.024 641.226 269.168 643.559 269.168C645.332 269.168 646.802 268.701 647.969 267.768C649.182 266.788 650.069 265.574 650.629 264.128C651.236 262.634 651.539 261.094 651.539 259.508C651.539 256.194 650.862 253.674 649.509 251.948C648.156 250.174 646.126 249.288 643.419 249.288C641.692 249.288 640.129 249.708 638.729 250.548C637.329 251.341 636.186 252.414 635.299 253.768C635.299 254.094 635.299 254.421 635.299 254.748ZM673.356 247.608C670.183 247.608 667.686 246.324 665.866 243.758C664.046 241.144 663.136 237.691 663.136 233.398C663.136 230.738 663.579 228.334 664.466 226.188C665.353 224.041 666.566 222.361 668.106 221.148C669.646 219.888 671.396 219.258 673.356 219.258C676.529 219.258 679.026 220.564 680.846 223.178C682.666 225.744 683.576 229.174 683.576 233.468C683.576 236.081 683.133 238.461 682.246 240.608C681.359 242.754 680.146 244.458 678.606 245.718C677.066 246.978 675.316 247.608 673.356 247.608ZM673.776 245.718C674.616 245.718 675.316 245.181 675.876 244.108C676.436 242.988 676.833 241.588 677.066 239.908C677.346 238.181 677.486 236.384 677.486 234.518C677.486 232.138 677.323 229.944 676.996 227.938C676.716 225.884 676.226 224.251 675.526 223.038C674.826 221.778 673.939 221.148 672.866 221.148C672.073 221.148 671.396 221.684 670.836 222.758C670.276 223.831 669.856 225.231 669.576 226.958C669.343 228.638 669.226 230.411 669.226 232.278C669.226 234.704 669.389 236.944 669.716 238.998C670.043 241.004 670.533 242.638 671.186 243.898C671.886 245.111 672.749 245.718 673.776 245.718ZM671.326 270.708L704.016 219.258L706.676 221.008L674.056 272.458L671.326 270.708ZM703.246 272.458C700.073 272.458 697.576 271.174 695.756 268.608C693.936 265.994 693.026 262.541 693.026 258.248C693.026 255.588 693.469 253.184 694.356 251.038C695.243 248.891 696.456 247.211 697.996 245.998C699.536 244.738 701.286 244.108 703.246 244.108C706.419 244.108 708.916 245.414 710.736 248.028C712.556 250.594 713.466 254.024 713.466 258.318C713.466 260.931 713.023 263.311 712.136 265.458C711.249 267.604 710.036 269.308 708.496 270.568C706.956 271.828 705.206 272.458 703.246 272.458ZM703.666 270.568C704.506 270.568 705.206 270.031 705.766 268.958C706.326 267.838 706.723 266.438 706.956 264.758C707.236 263.031 707.376 261.234 707.376 259.368C707.376 256.988 707.213 254.794 706.886 252.788C706.606 250.734 706.116 249.101 705.416 247.888C704.716 246.628 703.829 245.998 702.756 245.998C701.963 245.998 701.286 246.534 700.726 247.608C700.166 248.681 699.746 250.081 699.466 251.808C699.233 253.488 699.116 255.261 699.116 257.128C699.116 259.554 699.279 261.794 699.606 263.848C699.933 265.854 700.423 267.488 701.076 268.748C701.776 269.961 702.639 270.568 703.666 270.568Z" fill="white"/>
<path d="M486.176 95.7715V94.3315L494.366 90.8215V45.4615L478.796 53.1115V49.8715L500.576 36.3715H503.276V90.8215L510.656 94.3315V95.7715H486.176ZM541.856 96.6715C537.596 96.6715 533.966 95.4415 530.966 92.9815C527.966 90.5215 525.656 87.0115 524.036 82.4515C522.476 77.8315 521.696 72.3715 521.696 66.0715C521.696 60.1915 522.536 54.9715 524.216 50.4115C525.956 45.7915 528.326 42.1615 531.326 39.5215C534.386 36.8215 537.896 35.4715 541.856 35.4715C546.116 35.4715 549.746 36.7015 552.746 39.1615C555.806 41.6215 558.116 45.1615 559.676 49.7815C561.296 54.3415 562.106 59.7715 562.106 66.0715C562.106 71.9515 561.236 77.2015 559.496 81.8215C557.756 86.3815 555.356 90.0115 552.296 92.7115C549.296 95.3515 545.816 96.6715 541.856 96.6715ZM543.656 92.4415C545.516 92.4415 547.106 91.4215 548.426 89.3815C549.746 87.3415 550.736 84.5515 551.396 81.0115C552.116 77.4115 552.476 73.3615 552.476 68.8615C552.476 63.0415 552.026 57.9415 551.126 53.5615C550.286 49.1815 548.966 45.7915 547.166 43.3915C545.366 40.9315 543.116 39.7015 540.416 39.7015C538.436 39.7015 536.756 40.7215 535.376 42.7615C534.056 44.7415 533.036 47.5015 532.316 51.0415C531.656 54.5215 531.326 58.5415 531.326 63.1015C531.326 68.9815 531.776 74.1415 532.676 78.5815C533.576 82.9615 534.926 86.3815 536.726 88.8415C538.526 91.2415 540.836 92.4415 543.656 92.4415ZM588.087 96.6715C583.827 96.6715 580.197 95.4415 577.197 92.9815C574.197 90.5215 571.887 87.0115 570.267 82.4515C568.707 77.8315 567.927 72.3715 567.927 66.0715C567.927 60.1915 568.767 54.9715 570.447 50.4115C572.187 45.7915 574.557 42.1615 577.557 39.5215C580.617 36.8215 584.127 35.4715 588.087 35.4715C592.347 35.4715 595.977 36.7015 598.977 39.1615C602.037 41.6215 604.347 45.1615 605.907 49.7815C607.527 54.3415 608.337 59.7715 608.337 66.0715C608.337 71.9515 607.467 77.2015 605.727 81.8215C603.987 86.3815 601.587 90.0115 598.527 92.7115C595.527 95.3515 592.047 96.6715 588.087 96.6715ZM589.887 92.4415C591.747 92.4415 593.337 91.4215 594.657 89.3815C595.977 87.3415 596.967 84.5515 597.627 81.0115C598.347 77.4115 598.707 73.3615 598.707 68.8615C598.707 63.0415 598.257 57.9415 597.357 53.5615C596.517 49.1815 595.197 45.7915 593.397 43.3915C591.597 40.9315 589.347 39.7015 586.647 39.7015C584.667 39.7015 582.987 40.7215 581.607 42.7615C580.287 44.7415 579.267 47.5015 578.547 51.0415C577.887 54.5215 577.557 58.5415 577.557 63.1015C577.557 68.9815 578.007 74.1415 578.907 78.5815C579.807 82.9615 581.157 86.3815 582.957 88.8415C584.757 91.2415 587.067 92.4415 589.887 92.4415ZM627.027 64.7215C622.947 64.7215 619.737 63.0715 617.397 59.7715C615.057 56.4115 613.887 51.9715 613.887 46.4515C613.887 43.0315 614.457 39.9415 615.597 37.1815C616.737 34.4215 618.297 32.2615 620.277 30.7015C622.257 29.0815 624.507 28.2715 627.027 28.2715C631.107 28.2715 634.317 29.9515 636.657 33.3115C638.997 36.6115 640.167 41.0215 640.167 46.5415C640.167 49.9015 639.597 52.9615 638.457 55.7215C637.317 58.4815 635.757 60.6715 633.777 62.2915C631.797 63.9115 629.547 64.7215 627.027 64.7215ZM627.567 62.2915C628.647 62.2915 629.547 61.6015 630.267 60.2215C630.987 58.7815 631.497 56.9815 631.797 54.8215C632.157 52.6015 632.337 50.2915 632.337 47.8915C632.337 44.8315 632.127 42.0115 631.707 39.4315C631.347 36.7915 630.717 34.6915 629.817 33.1315C628.917 31.5115 627.777 30.7015 626.397 30.7015C625.377 30.7015 624.507 31.3915 623.787 32.7715C623.067 34.1515 622.527 35.9515 622.167 38.1715C621.867 40.3315 621.717 42.6115 621.717 45.0115C621.717 48.1315 621.927 51.0115 622.347 53.6515C622.767 56.2315 623.397 58.3315 624.237 59.9515C625.137 61.5115 626.247 62.2915 627.567 62.2915ZM624.417 94.4215L666.447 28.2715L669.867 30.5215L627.927 96.6715L624.417 94.4215ZM665.457 96.6715C661.377 96.6715 658.167 95.0215 655.827 91.7215C653.487 88.3615 652.317 83.9215 652.317 78.4015C652.317 74.9815 652.887 71.8915 654.027 69.1315C655.167 66.3715 656.727 64.2115 658.707 62.6515C660.687 61.0315 662.937 60.2215 665.457 60.2215C669.537 60.2215 672.747 61.9015 675.087 65.2615C677.427 68.5615 678.597 72.9715 678.597 78.4915C678.597 81.8515 678.027 84.9115 676.887 87.6715C675.747 90.4315 674.187 92.6215 672.207 94.2415C670.227 95.8615 667.977 96.6715 665.457 96.6715ZM665.997 94.2415C667.077 94.2415 667.977 93.5515 668.697 92.1715C669.417 90.7315 669.927 88.9315 670.227 86.7715C670.587 84.5515 670.767 82.2415 670.767 79.8415C670.767 76.7815 670.557 73.9615 670.137 71.3815C669.777 68.7415 669.147 66.6415 668.247 65.0815C667.347 63.4615 666.207 62.6515 664.827 62.6515C663.807 62.6515 662.937 63.3415 662.217 64.7215C661.497 66.1015 660.957 67.9015 660.597 70.1215C660.297 72.2815 660.147 74.5615 660.147 76.9615C660.147 80.0815 660.357 82.9615 660.777 85.6015C661.197 88.1815 661.827 90.2815 662.667 91.9015C663.567 93.4615 664.677 94.2415 665.997 94.2415Z" fill="white"/>
<path d="M173.245 413.971L107.835 478.9H180.94" stroke="white" stroke-width="3"/>
<path d="M7.15065 481.891C8.13065 479.604 9.06399 477.481 9.95065 475.521C10.884 473.514 11.864 471.461 12.8907 469.361C13.964 467.261 15.1773 464.951 16.5307 462.431C17.9307 459.911 19.564 456.994 21.4307 453.681C23.344 450.321 25.584 446.401 28.1507 441.921H4.63065V435.691H33.9607V437.371C32.2807 440.591 30.5073 444.044 28.6407 447.731C26.8207 451.417 25.024 455.197 23.2507 459.071C21.524 462.944 19.9607 466.817 18.5607 470.691C17.2073 474.517 16.1807 478.251 15.4807 481.891H7.15065ZM54.9377 482.591C52.231 482.591 49.711 482.147 47.3777 481.261C45.091 480.374 43.2477 479.114 41.8477 477.481C40.4477 475.847 39.7477 473.911 39.7477 471.671C39.7477 470.224 40.0044 468.824 40.5177 467.471C41.031 466.071 41.9644 464.694 43.3177 463.341C44.671 461.941 46.6077 460.517 49.1277 459.071C46.0944 457.204 43.971 455.384 42.7577 453.611C41.591 451.837 41.0077 449.667 41.0077 447.101C41.0077 444.907 41.6844 442.901 43.0377 441.081C44.391 439.261 46.141 437.791 48.2877 436.671C50.4344 435.551 52.721 434.991 55.1477 434.991C57.621 434.991 59.8844 435.504 61.9377 436.531C64.0377 437.511 65.6944 438.887 66.9077 440.661C68.121 442.387 68.7277 444.371 68.7277 446.611C68.7277 448.524 67.911 450.297 66.2777 451.931C64.691 453.564 62.521 455.127 59.7677 456.621C63.2677 458.674 65.8344 460.657 67.4677 462.571C69.1477 464.484 69.9877 466.864 69.9877 469.711C69.9877 472.464 69.2177 474.821 67.6777 476.781C66.1844 478.694 64.2944 480.141 62.0077 481.121C59.721 482.101 57.3644 482.591 54.9377 482.591ZM47.9377 444.651C47.9377 445.911 48.1477 447.077 48.5677 448.151C49.0344 449.177 49.921 450.251 51.2277 451.371C52.5344 452.444 54.4244 453.657 56.8977 455.011C58.5777 454.031 59.8844 452.887 60.8177 451.581C61.751 450.274 62.2177 448.757 62.2177 447.031C62.2177 444.044 61.5177 441.827 60.1177 440.381C58.7177 438.934 56.8744 438.211 54.5877 438.211C52.6744 438.211 51.0877 438.771 49.8277 439.891C48.5677 441.011 47.9377 442.597 47.9377 444.651ZM46.5377 470.201C46.5377 473.141 47.331 475.451 48.9177 477.131C50.5044 478.764 52.5577 479.581 55.0777 479.581C57.691 479.581 59.6977 478.927 61.0977 477.621C62.5444 476.267 63.2677 474.424 63.2677 472.091C63.2677 470.317 62.8244 468.824 61.9377 467.611C61.051 466.397 59.721 465.277 57.9477 464.251C56.221 463.177 54.121 461.941 51.6477 460.541C49.501 462.081 48.101 463.574 47.4477 465.021C46.841 466.467 46.5377 468.194 46.5377 470.201ZM90.3347 453.191C88.5614 453.191 86.9981 452.771 85.6447 451.931C84.2914 451.091 83.2181 449.994 82.4247 448.641C81.6314 447.241 81.2347 445.724 81.2347 444.091C81.2347 442.457 81.6314 440.964 82.4247 439.611C83.2181 438.211 84.2914 437.091 85.6447 436.251C86.9981 435.411 88.5614 434.991 90.3347 434.991C92.1081 434.991 93.6714 435.411 95.0247 436.251C96.3781 437.091 97.4514 438.211 98.2447 439.611C99.0381 440.964 99.4347 442.457 99.4347 444.091C99.4347 445.724 99.0381 447.241 98.2447 448.641C97.4514 449.994 96.3781 451.091 95.0247 451.931C93.6714 452.771 92.1081 453.191 90.3347 453.191ZM90.3347 450.391C92.0147 450.391 93.4381 449.831 94.6047 448.711C95.7714 447.544 96.3547 446.004 96.3547 444.091C96.3547 442.177 95.7714 440.661 94.6047 439.541C93.4381 438.374 92.0147 437.791 90.3347 437.791C88.6547 437.791 87.2314 438.374 86.0647 439.541C84.8981 440.661 84.3147 442.177 84.3147 444.091C84.3147 446.004 84.8981 447.544 86.0647 448.711C87.2314 449.831 88.6547 450.391 90.3347 450.391Z" fill="white"/>
<path d="M539.484 873.157V871.057C545.131 869.284 549.611 866.367 552.924 862.307C556.284 858.247 558.337 853.464 559.084 847.957C557.824 849.637 556.261 850.99 554.394 852.017C552.527 852.997 550.404 853.487 548.024 853.487C545.504 853.487 543.311 852.904 541.444 851.737C539.624 850.57 538.201 848.984 537.174 846.977C536.147 844.924 535.634 842.637 535.634 840.117C535.634 837.69 536.217 835.357 537.384 833.117C538.551 830.877 540.277 829.057 542.564 827.657C544.897 826.257 547.814 825.557 551.314 825.557C554.487 825.557 557.241 826.304 559.574 827.797C561.954 829.29 563.797 831.344 565.104 833.957C566.411 836.524 567.064 839.464 567.064 842.777C567.064 847.724 565.944 852.227 563.704 856.287C561.464 860.3 558.267 863.754 554.114 866.647C550.007 869.494 545.131 871.664 539.484 873.157ZM543.124 838.507C543.124 841.82 543.801 844.364 545.154 846.137C546.507 847.864 548.537 848.727 551.244 848.727C552.971 848.727 554.534 848.33 555.934 847.537C557.334 846.744 558.477 845.67 559.364 844.317C559.364 843.99 559.364 843.64 559.364 843.267C559.364 838.227 558.547 834.564 556.914 832.277C555.327 829.99 553.391 828.847 551.104 828.847C549.284 828.847 547.791 829.337 546.624 830.317C545.457 831.25 544.571 832.464 543.964 833.957C543.404 835.404 543.124 836.92 543.124 838.507ZM587.481 873.157C584.168 873.157 581.344 872.2 579.011 870.287C576.678 868.374 574.881 865.644 573.621 862.097C572.408 858.504 571.801 854.257 571.801 849.357C571.801 844.784 572.454 840.724 573.761 837.177C575.114 833.584 576.958 830.76 579.291 828.707C581.671 826.607 584.401 825.557 587.481 825.557C590.794 825.557 593.618 826.514 595.951 828.427C598.331 830.34 600.128 833.094 601.341 836.687C602.601 840.234 603.231 844.457 603.231 849.357C603.231 853.93 602.554 858.014 601.201 861.607C599.848 865.154 597.981 867.977 595.601 870.077C593.268 872.13 590.561 873.157 587.481 873.157ZM588.881 869.867C590.328 869.867 591.564 869.074 592.591 867.487C593.618 865.9 594.388 863.73 594.901 860.977C595.461 858.177 595.741 855.027 595.741 851.527C595.741 847 595.391 843.034 594.691 839.627C594.038 836.22 593.011 833.584 591.611 831.717C590.211 829.804 588.461 828.847 586.361 828.847C584.821 828.847 583.514 829.64 582.441 831.227C581.414 832.767 580.621 834.914 580.061 837.667C579.548 840.374 579.291 843.5 579.291 847.047C579.291 851.62 579.641 855.634 580.341 859.087C581.041 862.494 582.091 865.154 583.491 867.067C584.891 868.934 586.688 869.867 588.881 869.867ZM622.948 843.757C621.175 843.757 619.611 843.337 618.258 842.497C616.905 841.657 615.831 840.56 615.038 839.207C614.245 837.807 613.848 836.29 613.848 834.657C613.848 833.024 614.245 831.53 615.038 830.177C615.831 828.777 616.905 827.657 618.258 826.817C619.611 825.977 621.175 825.557 622.948 825.557C624.721 825.557 626.285 825.977 627.638 826.817C628.991 827.657 630.065 828.777 630.858 830.177C631.651 831.53 632.048 833.024 632.048 834.657C632.048 836.29 631.651 837.807 630.858 839.207C630.065 840.56 628.991 841.657 627.638 842.497C626.285 843.337 624.721 843.757 622.948 843.757ZM622.948 840.957C624.628 840.957 626.051 840.397 627.218 839.277C628.385 838.11 628.968 836.57 628.968 834.657C628.968 832.744 628.385 831.227 627.218 830.107C626.051 828.94 624.628 828.357 622.948 828.357C621.268 828.357 619.845 828.94 618.678 830.107C617.511 831.227 616.928 832.744 616.928 834.657C616.928 836.57 617.511 838.11 618.678 839.277C619.845 840.397 621.268 840.957 622.948 840.957Z" fill="white"/>
<path d="M1083.12 410.32V319.89" stroke="white" stroke-width="3"/>
<path d="M1049.65 319.891H1116.59" stroke="white" stroke-width="3"/>
<path d="M1083.12 504.398L1083.11 575.892" stroke="white" stroke-width="3"/>
<path d="M1083.12 657.891V754.99" stroke="white" stroke-width="3"/>
<path d="M1116.59 754.99H1049.65" stroke="white" stroke-width="3"/>
<path d="M982.166 477.945V476.825L988.536 474.095V438.815L976.426 444.765V442.245L993.366 431.745H995.466V474.095L1001.21 476.825V477.945H982.166ZM1011.12 477.945V475.985C1015.09 471.459 1018.36 467.679 1020.92 464.645C1023.54 461.565 1025.57 458.999 1027.01 456.945C1028.51 454.892 1029.58 453.142 1030.23 451.695C1030.93 450.249 1031.38 448.895 1031.56 447.635C1031.75 446.329 1031.84 444.882 1031.84 443.295C1031.84 440.589 1031.14 438.442 1029.74 436.855C1028.39 435.222 1026.64 434.405 1024.49 434.405C1019.59 434.405 1017.14 436.995 1017.14 442.175V445.325L1016.72 445.885H1013.15C1012.22 445.885 1011.52 445.722 1011.05 445.395C1010.59 445.069 1010.35 444.252 1010.35 442.945C1010.35 441.685 1010.73 440.425 1011.47 439.165C1012.22 437.859 1013.39 436.622 1014.97 435.455C1016.23 434.569 1017.4 433.799 1018.47 433.145C1019.59 432.492 1020.81 431.979 1022.11 431.605C1023.47 431.232 1025.05 431.045 1026.87 431.045C1029.35 431.045 1031.54 431.605 1033.45 432.725C1035.37 433.845 1036.86 435.339 1037.93 437.205C1039.05 439.072 1039.61 441.149 1039.61 443.435C1039.61 444.975 1039.43 446.375 1039.05 447.635C1038.73 448.895 1038.12 450.202 1037.23 451.555C1036.35 452.909 1035.13 454.472 1033.59 456.245C1032.05 458.019 1030.09 460.165 1027.71 462.685C1025.33 465.159 1022.44 468.169 1019.03 471.715H1036.04L1039.68 464.855H1040.8L1040.1 477.945H1011.12ZM1046.87 462.405V457.505H1066.12V462.405H1046.87ZM1087.05 478.645C1084.86 478.645 1082.85 478.389 1081.03 477.875C1079.21 477.362 1077.55 476.545 1076.06 475.425C1074.75 474.492 1073.75 473.535 1073.05 472.555C1072.35 471.575 1072 470.549 1072 469.475C1072 468.402 1072.21 467.749 1072.63 467.515C1073.05 467.235 1073.7 467.095 1074.59 467.095H1078.09L1078.65 467.655V469.965C1078.65 471.552 1079.33 472.859 1080.68 473.885C1082.03 474.912 1084.13 475.425 1086.98 475.425C1089.87 475.425 1092.09 474.539 1093.63 472.765C1095.22 470.992 1096.01 468.705 1096.01 465.905C1096.01 462.732 1095.15 460.235 1093.42 458.415C1091.74 456.549 1088.78 455.615 1084.53 455.615H1080.47V452.465H1082.78C1085.95 452.465 1088.54 451.579 1090.55 449.805C1092.6 447.985 1093.63 445.559 1093.63 442.525C1093.63 439.632 1093 437.532 1091.74 436.225C1090.53 434.919 1088.8 434.265 1086.56 434.265C1084.65 434.265 1083.06 434.825 1081.8 435.945C1080.59 437.065 1079.98 438.582 1079.98 440.495V443.155L1079.42 443.715H1076.06C1075.13 443.715 1074.43 443.575 1073.96 443.295C1073.54 443.015 1073.33 442.315 1073.33 441.195C1073.33 439.982 1073.73 438.769 1074.52 437.555C1075.36 436.295 1076.6 435.175 1078.23 434.195C1079.91 433.122 1081.5 432.329 1082.99 431.815C1084.48 431.302 1086.28 431.045 1088.38 431.045C1090.85 431.045 1093.07 431.535 1095.03 432.515C1096.99 433.449 1098.53 434.755 1099.65 436.435C1100.82 438.069 1101.4 439.959 1101.4 442.105C1101.4 444.579 1100.42 446.795 1098.46 448.755C1096.5 450.715 1093.89 452.092 1090.62 452.885C1095.01 453.492 1098.3 454.915 1100.49 457.155C1102.73 459.349 1103.85 462.149 1103.85 465.555C1103.85 467.935 1103.08 470.129 1101.54 472.135C1100 474.095 1097.95 475.682 1095.38 476.895C1092.86 478.062 1090.08 478.645 1087.05 478.645ZM1119.02 477.945V476.825L1125.39 474.095V464.715H1106.28V463.175L1130.29 431.745H1132.39V459.815H1140.72V464.715H1132.39V474.095L1138.06 476.825V477.945H1119.02ZM1113 459.815H1125.39V443.015L1113 459.815ZM1153.86 453.795C1150.68 453.795 1148.19 452.512 1146.37 449.945C1144.55 447.332 1143.64 443.879 1143.64 439.585C1143.64 436.925 1144.08 434.522 1144.97 432.375C1145.85 430.229 1147.07 428.549 1148.61 427.335C1150.15 426.075 1151.9 425.445 1153.86 425.445C1157.03 425.445 1159.53 426.752 1161.35 429.365C1163.17 431.932 1164.08 435.362 1164.08 439.655C1164.08 442.269 1163.63 444.649 1162.75 446.795C1161.86 448.942 1160.65 450.645 1159.11 451.905C1157.57 453.165 1155.82 453.795 1153.86 453.795ZM1154.28 451.905C1155.12 451.905 1155.82 451.369 1156.38 450.295C1156.94 449.175 1157.33 447.775 1157.57 446.095C1157.85 444.369 1157.99 442.572 1157.99 440.705C1157.99 438.325 1157.82 436.132 1157.5 434.125C1157.22 432.072 1156.73 430.439 1156.03 429.225C1155.33 427.965 1154.44 427.335 1153.37 427.335C1152.57 427.335 1151.9 427.872 1151.34 428.945C1150.78 430.019 1150.36 431.419 1150.08 433.145C1149.84 434.825 1149.73 436.599 1149.73 438.465C1149.73 440.892 1149.89 443.132 1150.22 445.185C1150.54 447.192 1151.03 448.825 1151.69 450.085C1152.39 451.299 1153.25 451.905 1154.28 451.905ZM1151.83 476.895L1184.52 425.445L1187.18 427.195L1154.56 478.645L1151.83 476.895ZM1183.75 478.645C1180.57 478.645 1178.08 477.362 1176.26 474.795C1174.44 472.182 1173.53 468.729 1173.53 464.435C1173.53 461.775 1173.97 459.372 1174.86 457.225C1175.74 455.079 1176.96 453.399 1178.5 452.185C1180.04 450.925 1181.79 450.295 1183.75 450.295C1186.92 450.295 1189.42 451.602 1191.24 454.215C1193.06 456.782 1193.97 460.212 1193.97 464.505C1193.97 467.119 1193.52 469.499 1192.64 471.645C1191.75 473.792 1190.54 475.495 1189 476.755C1187.46 478.015 1185.71 478.645 1183.75 478.645ZM1184.17 476.755C1185.01 476.755 1185.71 476.219 1186.27 475.145C1186.83 474.025 1187.22 472.625 1187.46 470.945C1187.74 469.219 1187.88 467.422 1187.88 465.555C1187.88 463.175 1187.71 460.982 1187.39 458.975C1187.11 456.922 1186.62 455.289 1185.92 454.075C1185.22 452.815 1184.33 452.185 1183.26 452.185C1182.46 452.185 1181.79 452.722 1181.23 453.795C1180.67 454.869 1180.25 456.269 1179.97 457.995C1179.73 459.675 1179.62 461.449 1179.62 463.315C1179.62 465.742 1179.78 467.982 1180.11 470.035C1180.43 472.042 1180.92 473.675 1181.58 474.935C1182.28 476.149 1183.14 476.755 1184.17 476.755Z" fill="white"/>
<path d="M988.955 635.591C986.762 635.591 984.755 635.334 982.935 634.821C981.115 634.307 979.458 633.491 977.965 632.371C976.658 631.437 975.655 630.481 974.955 629.501C974.255 628.521 973.905 627.494 973.905 626.421C973.905 625.347 974.115 624.694 974.535 624.461C974.955 624.181 975.608 624.041 976.495 624.041H979.995L980.555 624.601V626.911C980.555 628.497 981.232 629.804 982.585 630.831C983.938 631.857 986.038 632.371 988.885 632.371C991.778 632.371 993.995 631.484 995.535 629.711C997.122 627.937 997.915 625.651 997.915 622.851C997.915 619.677 997.052 617.181 995.325 615.361C993.645 613.494 990.682 612.561 986.435 612.561H982.375V609.411H984.685C987.858 609.411 990.448 608.524 992.455 606.751C994.508 604.931 995.535 602.504 995.535 599.471C995.535 596.577 994.905 594.477 993.645 593.171C992.432 591.864 990.705 591.211 988.465 591.211C986.552 591.211 984.965 591.771 983.705 592.891C982.492 594.011 981.885 595.527 981.885 597.441V600.101L981.325 600.661H977.965C977.032 600.661 976.332 600.521 975.865 600.241C975.445 599.961 975.235 599.261 975.235 598.141C975.235 596.927 975.632 595.714 976.425 594.501C977.265 593.241 978.502 592.121 980.135 591.141C981.815 590.067 983.402 589.274 984.895 588.761C986.388 588.247 988.185 587.991 990.285 587.991C992.758 587.991 994.975 588.481 996.935 589.461C998.895 590.394 1000.44 591.701 1001.56 593.381C1002.72 595.014 1003.31 596.904 1003.31 599.051C1003.31 601.524 1002.33 603.741 1000.37 605.701C998.405 607.661 995.792 609.037 992.525 609.831C996.912 610.437 1000.2 611.861 1002.4 614.101C1004.64 616.294 1005.76 619.094 1005.76 622.501C1005.76 624.881 1004.99 627.074 1003.45 629.081C1001.91 631.041 999.852 632.627 997.285 633.841C994.765 635.007 991.988 635.591 988.955 635.591ZM1020.92 634.891V633.771L1027.29 631.041V621.661H1008.18V620.121L1032.19 588.691H1034.29V616.761H1042.62V621.661H1034.29V631.041L1039.96 633.771V634.891H1020.92ZM1014.9 616.761H1027.29V599.961L1014.9 616.761ZM1046.87 619.351V614.451H1066.12V619.351H1046.87ZM1075.85 634.891C1076.83 632.604 1077.76 630.481 1078.65 628.521C1079.58 626.514 1080.56 624.461 1081.59 622.361C1082.66 620.261 1083.88 617.951 1085.23 615.431C1086.63 612.911 1088.26 609.994 1090.13 606.681C1092.04 603.321 1094.28 599.401 1096.85 594.921H1073.33V588.691H1102.66V590.371C1100.98 593.591 1099.21 597.044 1097.34 600.731C1095.52 604.417 1093.72 608.197 1091.95 612.071C1090.22 615.944 1088.66 619.817 1087.26 623.691C1085.91 627.517 1084.88 631.251 1084.18 634.891H1075.85ZM1123.64 635.591C1120.93 635.591 1118.41 635.147 1116.08 634.261C1113.79 633.374 1111.95 632.114 1110.55 630.481C1109.15 628.847 1108.45 626.911 1108.45 624.671C1108.45 623.224 1108.7 621.824 1109.22 620.471C1109.73 619.071 1110.66 617.694 1112.02 616.341C1113.37 614.941 1115.31 613.517 1117.83 612.071C1114.79 610.204 1112.67 608.384 1111.46 606.611C1110.29 604.837 1109.71 602.667 1109.71 600.101C1109.71 597.907 1110.38 595.901 1111.74 594.081C1113.09 592.261 1114.84 590.791 1116.99 589.671C1119.13 588.551 1121.42 587.991 1123.85 587.991C1126.32 587.991 1128.58 588.504 1130.64 589.531C1132.74 590.511 1134.39 591.887 1135.61 593.661C1136.82 595.387 1137.43 597.371 1137.43 599.611C1137.43 601.524 1136.61 603.297 1134.98 604.931C1133.39 606.564 1131.22 608.127 1128.47 609.621C1131.97 611.674 1134.53 613.657 1136.17 615.571C1137.85 617.484 1138.69 619.864 1138.69 622.711C1138.69 625.464 1137.92 627.821 1136.38 629.781C1134.88 631.694 1132.99 633.141 1130.71 634.121C1128.42 635.101 1126.06 635.591 1123.64 635.591ZM1116.64 597.651C1116.64 598.911 1116.85 600.077 1117.27 601.151C1117.73 602.177 1118.62 603.251 1119.93 604.371C1121.23 605.444 1123.12 606.657 1125.6 608.011C1127.28 607.031 1128.58 605.887 1129.52 604.581C1130.45 603.274 1130.92 601.757 1130.92 600.031C1130.92 597.044 1130.22 594.827 1128.82 593.381C1127.42 591.934 1125.57 591.211 1123.29 591.211C1121.37 591.211 1119.79 591.771 1118.53 592.891C1117.27 594.011 1116.64 595.597 1116.64 597.651ZM1115.24 623.201C1115.24 626.141 1116.03 628.451 1117.62 630.131C1119.2 631.764 1121.26 632.581 1123.78 632.581C1126.39 632.581 1128.4 631.927 1129.8 630.621C1131.24 629.267 1131.97 627.424 1131.97 625.091C1131.97 623.317 1131.52 621.824 1130.64 620.611C1129.75 619.397 1128.42 618.277 1126.65 617.251C1124.92 616.177 1122.82 614.941 1120.35 613.541C1118.2 615.081 1116.8 616.574 1116.15 618.021C1115.54 619.467 1115.24 621.194 1115.24 623.201ZM1153.85 610.741C1150.68 610.741 1148.18 609.457 1146.36 606.891C1144.54 604.277 1143.63 600.824 1143.63 596.531C1143.63 593.871 1144.08 591.467 1144.96 589.321C1145.85 587.174 1147.06 585.494 1148.6 584.281C1150.14 583.021 1151.89 582.391 1153.85 582.391C1157.03 582.391 1159.52 583.697 1161.34 586.311C1163.16 588.877 1164.07 592.307 1164.07 596.601C1164.07 599.214 1163.63 601.594 1162.74 603.741C1161.86 605.887 1160.64 607.591 1159.1 608.851C1157.56 610.111 1155.81 610.741 1153.85 610.741ZM1154.27 608.851C1155.11 608.851 1155.81 608.314 1156.37 607.241C1156.93 606.121 1157.33 604.721 1157.56 603.041C1157.84 601.314 1157.98 599.517 1157.98 597.651C1157.98 595.271 1157.82 593.077 1157.49 591.071C1157.21 589.017 1156.72 587.384 1156.02 586.171C1155.32 584.911 1154.44 584.281 1153.36 584.281C1152.57 584.281 1151.89 584.817 1151.33 585.891C1150.77 586.964 1150.35 588.364 1150.07 590.091C1149.84 591.771 1149.72 593.544 1149.72 595.411C1149.72 597.837 1149.89 600.077 1150.21 602.131C1150.54 604.137 1151.03 605.771 1151.68 607.031C1152.38 608.244 1153.25 608.851 1154.27 608.851ZM1151.82 633.841L1184.51 582.391L1187.17 584.141L1154.55 635.591L1151.82 633.841ZM1183.74 635.591C1180.57 635.591 1178.07 634.307 1176.25 631.741C1174.43 629.127 1173.52 625.674 1173.52 621.381C1173.52 618.721 1173.97 616.317 1174.85 614.171C1175.74 612.024 1176.95 610.344 1178.49 609.131C1180.03 607.871 1181.78 607.241 1183.74 607.241C1186.92 607.241 1189.41 608.547 1191.23 611.161C1193.05 613.727 1193.96 617.157 1193.96 621.451C1193.96 624.064 1193.52 626.444 1192.63 628.591C1191.75 630.737 1190.53 632.441 1188.99 633.701C1187.45 634.961 1185.7 635.591 1183.74 635.591ZM1184.16 633.701C1185 633.701 1185.7 633.164 1186.26 632.091C1186.82 630.971 1187.22 629.571 1187.45 627.891C1187.73 626.164 1187.87 624.367 1187.87 622.501C1187.87 620.121 1187.71 617.927 1187.38 615.921C1187.1 613.867 1186.61 612.234 1185.91 611.021C1185.21 609.761 1184.33 609.131 1183.25 609.131C1182.46 609.131 1181.78 609.667 1181.22 610.741C1180.66 611.814 1180.24 613.214 1179.96 614.941C1179.73 616.621 1179.61 618.394 1179.61 620.261C1179.61 622.687 1179.78 624.927 1180.1 626.981C1180.43 628.987 1180.92 630.621 1181.57 631.881C1182.27 633.094 1183.14 633.701 1184.16 633.701Z" fill="white"/>
<path d="M533.534 754.891L577.458 798.458L618.528 754.891" stroke="white" stroke-width="3"/>
<path d="M299.78 319.891H575.362M299.78 319.891L222.109 447.909M299.78 319.891L439.438 447.909M851.691 319.891L930.109 447.909M851.691 319.891H575.362M851.691 319.891L712.78 447.909M930.109 447.909L575.362 754.891M930.109 447.909H712.78M575.362 754.891L712.78 447.909M575.362 754.891V447.909M575.362 754.891L439.438 447.909M575.362 754.891L222.109 447.909M575.362 319.891V447.909M575.362 319.891L712.78 447.909M575.362 319.891L439.438 447.909M712.78 447.909H575.362M575.362 447.909H439.438M222.109 447.909H439.438" stroke="white" stroke-width="3"/>
</svg>
