<svg width="1440" height="1070" viewBox="0 0 1440 1070" fill="none" xmlns="http://www.w3.org/2000/svg">
<path opacity="0.6" d="M114 670.275V707.775H321V670.275" stroke="#4C73FF" stroke-width="3"/>
<path opacity="0.6" d="M343.5 670.275V707.775H550.5V670.275" stroke="#4C73FF" stroke-width="3"/>
<path opacity="0.6" d="M1117.5 670.275V708.275H1312.5V670.275" stroke="#4C73FF" stroke-width="3"/>
<path opacity="0.6" d="M571.5 670.275V708.275H820.5V670.275" stroke="#4C73FF" stroke-width="3"/>
<path opacity="0.6" d="M844.5 670.275V708.275H1093.5V670.275" stroke="#4C73FF" stroke-width="3"/>
<path d="M208.9 514.275L220.6 539.175H278.8C278.8 536.775 278.8 534.375 278.8 531.975C278.8 509.575 274.3 492.475 265.3 480.675C256.3 468.875 244.3 462.975 229.3 462.975C222.9 462.975 216.9 464.175 211.3 466.575C205.7 468.775 200.4 471.475 195.4 474.675L165.1 513.375H160L172 463.575C180.4 458.975 189.8 455.275 200.2 452.475C210.6 449.675 222.4 448.275 235.6 448.275C252.6 448.275 267.2 451.675 279.4 458.475C291.6 465.275 301 474.775 307.6 486.975C314.2 498.975 317.5 512.975 317.5 528.975C317.5 546.175 314.4 562.275 308.2 577.275C302 592.275 293.4 605.375 282.4 616.575C271.6 627.775 259.1 636.575 244.9 642.975C230.7 649.175 215.6 652.275 199.6 652.275C186.6 652.275 176.1 651.075 168.1 648.675C160.3 646.275 152.2 642.675 143.8 637.875L150.7 582.975H155.5L172.9 627.075C176.9 631.075 181.1 633.975 185.5 635.775C189.9 637.375 195.8 638.175 203.2 638.175C216.8 638.175 228.7 634.575 238.9 627.375C249.3 619.975 257.7 609.975 264.1 597.375C270.7 584.775 275.1 570.575 277.3 554.775H217.9L197.2 580.275H192.4L204.1 514.275H208.9Z" fill="#4C73FF"/>
<path d="M454.7 652.275C437.5 652.275 422.8 648.875 410.6 642.075C398.4 635.075 389 625.575 382.4 613.575C376 601.375 372.8 587.375 372.8 571.575C372.8 554.975 375.9 539.275 382.1 524.475C388.3 509.475 396.9 496.275 407.9 484.875C418.9 473.475 431.6 464.575 446 458.175C460.4 451.575 475.7 448.275 491.9 448.275C503.5 448.275 513.1 449.475 520.7 451.875C528.5 454.275 536.5 457.875 544.7 462.675L538.1 517.575H533L515.9 473.475C511.9 469.675 507.8 466.875 503.6 465.075C499.4 463.275 494.2 462.375 488 462.375C476.2 462.375 465.6 465.175 456.2 470.775C446.8 476.375 438.8 484.175 432.2 494.175C425.6 504.175 420.5 515.675 416.9 528.675C413.3 541.475 411.5 555.275 411.5 570.075C411.5 591.075 416.1 607.575 425.3 619.575C434.5 631.575 446.8 637.575 462.2 637.575C469.2 637.575 475.7 636.475 481.7 634.275C487.9 631.875 493.6 629.075 498.8 625.875L529.1 587.175H534.2L522.2 636.975C513.6 641.775 503.8 645.575 492.8 648.375C482 650.975 469.3 652.275 454.7 652.275Z" fill="#4C73FF"/>
<path d="M597.4 649.275L598.3 644.475L623.8 632.175L652.6 468.375L631.3 456.075L632.2 451.275H715.6L714.4 456.075L689.2 468.375L660.1 632.175L681.7 644.475L680.5 649.275H597.4ZM740.8 649.275L675.4 548.775L765.7 466.575L746.8 456.075L747.7 451.275H811L809.8 456.075L791.2 463.575L709 537.375L775 633.675L792.7 644.475L791.8 649.275H740.8Z" fill="#4C73FF"/>
<path d="M1231.8 462.375C1226 462.375 1220.8 463.175 1216.2 464.775C1211.8 466.175 1207.1 468.475 1202.1 471.675L1167.6 516.975H1162.2L1174.5 462.075C1183.7 458.075 1193.1 454.775 1202.7 452.175C1212.5 449.575 1224.5 448.275 1238.7 448.275C1259.5 448.275 1274.8 452.575 1284.6 461.175C1294.6 469.775 1299.6 480.175 1299.6 492.375C1299.6 499.775 1297.4 507.175 1293 514.575C1288.8 521.975 1282.5 528.475 1274.1 534.075C1265.9 539.675 1255.7 543.575 1243.5 545.775C1260.1 547.975 1272.5 552.875 1280.7 560.475C1289.1 568.075 1293.3 577.375 1293.3 588.375C1293.3 598.975 1289.8 609.175 1282.8 618.975C1275.8 628.575 1265.6 636.575 1252.2 642.975C1238.8 649.175 1222.4 652.275 1203 652.275C1188.2 652.275 1175.6 650.875 1165.2 648.075C1154.8 645.275 1146 641.575 1138.8 636.975L1143.6 587.175H1148.7L1169.4 628.575C1173.2 631.175 1177.6 633.375 1182.6 635.175C1187.6 636.775 1194 637.575 1201.8 637.575C1213.2 637.575 1222.7 635.375 1230.3 630.975C1238.1 626.375 1243.9 620.575 1247.7 613.575C1251.7 606.575 1253.7 599.375 1253.7 591.975C1253.7 581.375 1250.1 572.575 1242.9 565.575C1235.7 558.575 1224.8 555.075 1210.2 555.075H1188.9L1191.9 539.475H1212C1222.6 539.475 1231.4 537.075 1238.4 532.275C1245.6 527.475 1251 521.575 1254.6 514.575C1258.4 507.375 1260.3 500.175 1260.3 492.975C1260.3 484.775 1257.9 477.675 1253.1 471.675C1248.5 465.475 1241.4 462.375 1231.8 462.375Z" fill="#4C73FF"/>
<line opacity="0.6" x1="148" y1="514.775" x2="179" y2="514.775" stroke="#4C73FF" stroke-width="3"/>
<line opacity="0.6" x1="521" y1="518.775" x2="552" y2="518.775" stroke="#4C73FF" stroke-width="3"/>
<line opacity="0.6" x1="1151" y1="518.775" x2="1182" y2="518.775" stroke="#4C73FF" stroke-width="3"/>
<line opacity="0.6" x1="138" y1="581.775" x2="169" y2="581.775" stroke="#4C73FF" stroke-width="3"/>
<line opacity="0.6" x1="517" y1="585.775" x2="548" y2="585.775" stroke="#4C73FF" stroke-width="3"/>
<line opacity="0.6" x1="1131" y1="585.775" x2="1162" y2="585.775" stroke="#4C73FF" stroke-width="3"/>
<path d="M859.526 648.999L859.193 650.775H861H942.9H944.145L944.374 649.552L945.274 644.752L945.47 643.708L944.55 643.176L924.151 631.396L925.704 622.073L1027.86 513.843L1007.25 631.195L984.795 643.151L984.159 643.49L984.026 644.199L983.126 648.999L982.793 650.775H984.6H1066.5H1067.74L1067.97 649.552L1068.87 644.752L1069.07 643.688L1068.13 643.163L1046.86 631.382L1075.35 469.384L1099.56 457.42L1100.24 457.088L1100.37 456.352L1101.27 451.552L1101.61 449.775H1099.8H1017.9H1016.66L1016.43 450.999L1015.53 455.799L1015.33 456.822L1016.23 457.36L1035.75 469.13L1033.6 481.476L931.46 590.27L952.947 469.366L975.991 457.407L976.64 457.07L976.774 456.352L977.674 451.552L978.007 449.775H976.2H894.3H893.055L892.826 450.999L891.926 455.799L891.729 456.85L892.658 457.379L913.34 469.156L884.853 631.176L861.223 643.137L860.562 643.471L860.426 644.199L859.526 648.999Z" stroke="#4C73FF" stroke-width="3"/>
<path d="M1045.93 630.864L1045.59 630.676H1045.2H1008.6H1008.23L1007.89 630.852L984.795 643.152L984.159 643.491L984.026 644.199L983.126 648.999L982.793 650.776H984.6H1066.5H1067.74L1067.97 649.552L1068.87 644.752L1069.07 643.688L1068.13 643.164L1045.93 630.864Z" fill="#4C73FF" stroke="#4C73FF" stroke-width="3"/>
<path d="M914.258 469.679L914.603 469.875H915H951.6H951.966L952.291 469.707L975.991 457.407L976.64 457.07L976.774 456.352L977.674 451.552L978.007 449.775H976.2H894.3H893.055L892.826 450.999L891.926 455.799L891.729 456.85L892.658 457.379L914.258 469.679Z" fill="#4C73FF" stroke="#4C73FF" stroke-width="3"/>
<g opacity="0.2">
<path d="M898.338 360.934C823.39 428.77 773.235 509.703 752.717 585.696C732.197 661.695 741.33 732.682 784.832 780.745C828.335 828.809 898.062 844.951 975.724 832.085C1053.38 819.22 1138.9 777.357 1213.85 709.521C1288.79 641.686 1338.95 560.752 1359.47 484.759C1379.99 408.76 1370.85 337.774 1327.35 289.71C1283.85 241.647 1214.12 225.504 1136.46 238.37C1058.8 251.235 973.286 293.098 898.338 360.934Z" fill="#4C73FF" stroke="#E2E9FF"/>
<path d="M996.593 477.884C935.818 532.892 891.463 594.439 868.867 649.461C846.256 704.521 845.495 752.87 871.577 781.686C897.659 810.503 945.844 814.551 1002.88 797.523C1059.87 780.507 1125.52 742.488 1186.3 687.481C1247.07 632.473 1291.43 570.926 1314.03 515.904C1336.64 460.844 1337.4 412.495 1311.32 383.678C1285.23 354.862 1237.05 350.814 1180.01 367.841C1123.02 384.857 1057.37 422.877 996.593 477.884Z" fill="#E2E9FF" stroke="#E2E9FF"/>
</g>
<g opacity="0.2">
<path d="M506.793 747.26C597.969 703.604 669.113 640.326 710.443 573.335C751.777 506.338 763.258 435.694 735.262 377.224C707.266 318.753 645.033 283.404 566.926 273.597C488.824 263.791 394.922 279.54 303.746 323.196C212.57 366.852 141.426 430.13 100.096 497.121C58.7624 564.117 47.2807 634.762 75.2769 693.232C103.273 751.702 165.506 787.051 243.613 796.858C321.715 806.664 415.617 790.916 506.793 747.26Z" fill="#4C73FF" stroke="#E2E9FF"/>
<path d="M445.953 607.153C519.886 571.753 579.946 525.403 617.29 479.105C654.658 432.776 669.17 386.65 652.385 351.594C635.6 316.538 590.567 298.922 531.046 298.985C471.565 299.047 397.8 316.774 323.866 352.175C249.932 387.575 189.872 433.924 152.529 480.222C115.161 526.552 100.649 572.678 117.434 607.734C134.219 642.79 179.251 660.406 238.773 660.343C298.254 660.281 372.019 642.553 445.953 607.153Z" fill="#E2E9FF" stroke="#E2E9FF"/>
</g>
</svg>
