<svg width="1440" height="898" viewBox="0 0 1440 898" fill="none" xmlns="http://www.w3.org/2000/svg">
<g opacity="0.2">
<path d="M532.259 188.462C607.207 256.298 657.361 337.231 677.88 413.224C698.4 489.223 689.267 560.21 645.764 608.273C602.262 656.337 532.534 672.479 454.872 659.613C377.216 646.749 291.699 604.885 216.751 537.05C141.803 469.214 91.6487 388.281 71.1304 312.288C50.6104 236.289 59.7435 165.302 103.246 117.238C146.748 69.1751 216.476 53.0327 294.138 65.8985C371.794 78.7632 457.311 120.626 532.259 188.462Z" fill="#4C73FF" stroke="#E2E9FF"/>
<path d="M434.003 305.413C494.778 360.421 539.133 421.968 561.729 476.99C584.34 532.05 585.101 580.399 559.019 609.216C532.937 638.032 484.752 642.08 427.718 625.052C370.722 608.037 305.072 570.017 244.297 515.01C183.522 460.002 139.167 398.455 116.571 343.433C93.96 288.373 93.1993 240.024 119.281 211.208C145.363 182.391 193.548 178.343 250.583 195.371C307.578 212.387 373.229 250.406 434.003 305.413Z" fill="#E2E9FF" stroke="#E2E9FF"/>
</g>
<g opacity="0.2">
<path d="M923.804 574.787C832.628 531.131 761.483 467.853 720.153 400.862C678.82 333.866 667.338 263.221 695.334 204.751C723.331 146.281 785.563 110.931 863.671 101.125C941.772 91.3185 1035.67 107.067 1126.85 150.723C1218.03 194.379 1289.17 257.657 1330.5 324.648C1371.83 391.644 1383.32 462.289 1355.32 520.759C1327.32 579.229 1265.09 614.579 1186.98 624.386C1108.88 634.192 1014.98 618.443 923.804 574.787Z" fill="#4C73FF" stroke="#E2E9FF"/>
<path d="M984.644 434.68C910.71 399.28 850.65 352.931 813.307 306.633C775.938 260.303 761.427 214.177 778.212 179.121C794.997 144.065 840.029 126.449 899.551 126.512C959.032 126.574 1032.8 144.302 1106.73 179.702C1180.66 215.102 1240.72 261.452 1278.07 307.75C1315.44 354.079 1329.95 400.205 1313.16 435.261C1296.38 470.317 1251.34 487.933 1191.82 487.871C1132.34 487.808 1058.58 470.081 984.644 434.68Z" fill="#E2E9FF" stroke="#E2E9FF"/>
</g>
</svg>
