<svg width="620" height="585" viewBox="0 0 620 585" fill="none" xmlns="http://www.w3.org/2000/svg">
<rect opacity="0.1" x="0.5" y="0.615234" width="619" height="583" fill="#4C73FF" stroke="black"/>
<mask id="mask0_163_5233" style="mask-type:alpha" maskUnits="userSpaceOnUse" x="0" y="0" width="620" height="585">
<rect x="0.5" y="0.615234" width="619" height="583" fill="#4C73FF" stroke="black"/>
</mask>
<g mask="url(#mask0_163_5233)">
<path d="M128.179 451.962L128.168 453.462L129.668 453.473L235.922 454.257L237.422 454.268L237.433 452.768L237.481 446.353L237.487 445.431L236.668 445.008L205.93 429.159L206.022 416.595L338.491 261.938L337.251 430.122L305.889 445.515L305.056 445.924L305.05 446.851L305.002 453.266L304.991 454.766L306.491 454.777L412.746 455.561L414.245 455.572L414.257 454.072L414.304 447.656L414.311 446.724L413.478 446.305L381.951 430.446L383.558 212.585L415.315 197.192L416.154 196.786L416.16 195.853L416.208 189.438L416.219 187.938L414.719 187.927L308.464 187.144L306.965 187.133L306.953 188.633L306.906 195.048L306.899 195.975L307.725 196.396L338.858 212.25L338.742 228.016L206.272 382.673L207.536 211.276L238.505 195.882L239.33 195.471L239.337 194.55L239.384 188.134L239.395 186.634L237.896 186.623L131.641 185.84L130.141 185.829L130.13 187.329L130.083 193.744L130.076 194.676L130.909 195.095L162.435 210.954L160.829 428.816L129.072 444.208L128.233 444.615L128.226 445.547L128.179 451.962Z" fill="#4C73FF" fill-opacity="0.5" stroke="#4C73FF" stroke-width="3"/>
<circle cx="154.507" cy="195.621" r="4.88249" transform="rotate(178.872 154.507 195.621)" fill="#E2E9FF" stroke="#4C73FF" stroke-width="3"/>
<circle cx="393.657" cy="446.796" r="4.88249" transform="rotate(-28.553 393.657 446.796)" fill="#E2E9FF" stroke="#4C73FF" stroke-width="3"/>
<path d="M149 204.614C141.285 211.518 129.944 215.229 119.091 212.719C101.367 208.62 90.3226 190.929 94.4216 173.206C98.5206 155.482 116.211 144.438 133.935 148.537C151.658 152.636 162.703 170.326 158.604 188.05C157.661 192.125 155.715 196.348 153.5 199.614" stroke="#4C73FF" stroke-width="3"/>
<circle cx="102.162" cy="141.279" r="18.2764" transform="rotate(178.872 102.162 141.279)" stroke="#4C73FF" stroke-width="3"/>
<path d="M394.403 436.278C398.072 426.597 406.429 418.08 417.218 415.309C434.838 410.784 452.789 421.4 457.314 439.019C461.839 456.639 451.223 474.59 433.604 479.115C415.984 483.64 398.033 473.024 393.508 455.405C392.467 451.353 392.25 446.709 392.712 442.789" stroke="#4C73FF" stroke-width="3"/>
<circle cx="490.162" cy="485.279" r="18.2764" transform="rotate(178.872 490.162 485.279)" stroke="#4C73FF" stroke-width="3"/>
<circle cx="510.162" cy="507.279" r="18.2764" transform="rotate(178.872 510.162 507.279)" stroke="#4C73FF" stroke-width="3"/>
<circle cx="526.162" cy="531.279" r="18.2764" transform="rotate(178.872 526.162 531.279)" stroke="#4C73FF" stroke-width="3"/>
<circle cx="538.162" cy="558.279" r="18.2764" transform="rotate(178.872 538.162 558.279)" stroke="#4C73FF" stroke-width="3"/>
<circle cx="537.162" cy="588.279" r="18.2764" transform="rotate(178.872 537.162 588.279)" stroke="#4C73FF" stroke-width="3"/>
<circle cx="466.162" cy="466.279" r="18.2764" transform="rotate(178.872 466.162 466.279)" stroke="#4C73FF" stroke-width="3"/>
<circle cx="73.1621" cy="52.279" r="18.2764" transform="rotate(178.872 73.1621 52.279)" stroke="#4C73FF" stroke-width="3"/>
<circle cx="87.1621" cy="113.279" r="18.2764" transform="rotate(178.872 87.1621 113.279)" stroke="#4C73FF" stroke-width="3"/>
<circle cx="73.1622" cy="20.279" r="18.2764" transform="rotate(178.872 73.1622 20.279)" stroke="#4C73FF" stroke-width="3"/>
<circle cx="74.162" cy="-11.721" r="18.2764" transform="rotate(178.872 74.162 -11.721)" stroke="#4C73FF" stroke-width="3"/>
<circle cx="79.1621" cy="83.279" r="18.2764" transform="rotate(178.872 79.1621 83.279)" stroke="#4C73FF" stroke-width="3"/>
</g>
</svg>
