<svg width="1277" height="915" viewBox="0 0 1277 915" fill="none" xmlns="http://www.w3.org/2000/svg">
<path d="M1187.64 153.592L1187.75 153.144L1190.32 152.024L1192.82 137.912L1188.11 140.292L1188.31 139.312L1195 135.112H1195.56L1192.56 152.024L1194.52 153.144L1194.44 153.592H1187.64ZM1204.66 153.872C1203.22 153.872 1202.12 153.34 1201.36 152.276C1200.61 151.193 1200.24 149.69 1200.24 147.768C1200.24 146.05 1200.44 144.417 1200.85 142.868C1201.26 141.318 1201.83 139.937 1202.56 138.724C1203.29 137.51 1204.12 136.558 1205.05 135.868C1205.99 135.177 1206.97 134.832 1207.99 134.832C1209.43 134.832 1210.52 135.373 1211.27 136.456C1212.03 137.538 1212.42 139.041 1212.42 140.964C1212.42 142.662 1212.21 144.286 1211.8 145.836C1211.39 147.385 1210.82 148.766 1210.09 149.98C1209.36 151.193 1208.53 152.145 1207.6 152.836C1206.69 153.526 1205.71 153.872 1204.66 153.872ZM1205.05 152.64C1205.71 152.64 1206.33 152.332 1206.93 151.716C1207.53 151.081 1208.05 150.222 1208.5 149.14C1208.96 148.057 1209.33 146.806 1209.59 145.388C1209.87 143.95 1210.01 142.438 1210.01 140.852C1210.01 137.66 1209.21 136.064 1207.6 136.064C1206.95 136.064 1206.32 136.381 1205.72 137.016C1205.13 137.632 1204.6 138.49 1204.13 139.592C1203.68 140.674 1203.32 141.925 1203.04 143.344C1202.78 144.762 1202.64 146.274 1202.64 147.88C1202.64 151.053 1203.45 152.64 1205.05 152.64ZM1190.66 185.872C1189.22 185.872 1188.12 185.34 1187.36 184.276C1186.61 183.193 1186.24 181.69 1186.24 179.768C1186.24 178.05 1186.44 176.417 1186.85 174.868C1187.26 173.318 1187.83 171.937 1188.56 170.724C1189.29 169.51 1190.12 168.558 1191.05 167.868C1191.99 167.177 1192.97 166.832 1193.99 166.832C1195.43 166.832 1196.52 167.373 1197.27 168.456C1198.03 169.538 1198.42 171.041 1198.42 172.964C1198.42 174.662 1198.21 176.286 1197.8 177.836C1197.39 179.385 1196.82 180.766 1196.09 181.98C1195.36 183.193 1194.53 184.145 1193.6 184.836C1192.69 185.526 1191.71 185.872 1190.66 185.872ZM1191.05 184.64C1191.71 184.64 1192.33 184.332 1192.93 183.716C1193.53 183.081 1194.05 182.222 1194.5 181.14C1194.96 180.057 1195.33 178.806 1195.59 177.388C1195.87 175.95 1196.01 174.438 1196.01 172.852C1196.01 169.66 1195.21 168.064 1193.6 168.064C1192.95 168.064 1192.32 168.381 1191.72 169.016C1191.13 169.632 1190.6 170.49 1190.13 171.592C1189.68 172.674 1189.32 173.925 1189.04 175.344C1188.78 176.762 1188.64 178.274 1188.64 179.88C1188.64 183.053 1189.45 184.64 1191.05 184.64ZM1204.66 185.872C1203.22 185.872 1202.12 185.34 1201.36 184.276C1200.61 183.193 1200.24 181.69 1200.24 179.768C1200.24 178.05 1200.44 176.417 1200.85 174.868C1201.26 173.318 1201.83 171.937 1202.56 170.724C1203.29 169.51 1204.12 168.558 1205.05 167.868C1205.99 167.177 1206.97 166.832 1207.99 166.832C1209.43 166.832 1210.52 167.373 1211.27 168.456C1212.03 169.538 1212.42 171.041 1212.42 172.964C1212.42 174.662 1212.21 176.286 1211.8 177.836C1211.39 179.385 1210.82 180.766 1210.09 181.98C1209.36 183.193 1208.53 184.145 1207.6 184.836C1206.69 185.526 1205.71 185.872 1204.66 185.872ZM1205.05 184.64C1205.71 184.64 1206.33 184.332 1206.93 183.716C1207.53 183.081 1208.05 182.222 1208.5 181.14C1208.96 180.057 1209.33 178.806 1209.59 177.388C1209.87 175.95 1210.01 174.438 1210.01 172.852C1210.01 169.66 1209.21 168.064 1207.6 168.064C1206.95 168.064 1206.32 168.381 1205.72 169.016C1205.13 169.632 1204.6 170.49 1204.13 171.592C1203.68 172.674 1203.32 173.925 1203.04 175.344C1202.78 176.762 1202.64 178.274 1202.64 179.88C1202.64 183.053 1203.45 184.64 1205.05 184.64ZM1218.66 185.872C1217.22 185.872 1216.12 185.34 1215.36 184.276C1214.61 183.193 1214.24 181.69 1214.24 179.768C1214.24 178.05 1214.44 176.417 1214.85 174.868C1215.26 173.318 1215.83 171.937 1216.56 170.724C1217.29 169.51 1218.12 168.558 1219.05 167.868C1219.99 167.177 1220.97 166.832 1221.99 166.832C1223.43 166.832 1224.52 167.373 1225.27 168.456C1226.03 169.538 1226.42 171.041 1226.42 172.964C1226.42 174.662 1226.21 176.286 1225.8 177.836C1225.39 179.385 1224.82 180.766 1224.09 181.98C1223.36 183.193 1222.53 184.145 1221.6 184.836C1220.69 185.526 1219.71 185.872 1218.66 185.872ZM1219.05 184.64C1219.71 184.64 1220.33 184.332 1220.93 183.716C1221.53 183.081 1222.05 182.222 1222.5 181.14C1222.96 180.057 1223.33 178.806 1223.59 177.388C1223.87 175.95 1224.01 174.438 1224.01 172.852C1224.01 169.66 1223.21 168.064 1221.6 168.064C1220.95 168.064 1220.32 168.381 1219.72 169.016C1219.13 169.632 1218.6 170.49 1218.13 171.592C1217.68 172.674 1217.32 173.925 1217.04 175.344C1216.78 176.762 1216.64 178.274 1216.64 179.88C1216.64 183.053 1217.45 184.64 1219.05 184.64ZM1227.2 185.592L1227.26 185.144L1229.58 184.024L1230.2 180.58H1228.24L1228.43 179.516H1230.36L1230.92 176.296H1228.94L1229.13 175.232H1231.12L1232.27 168.68L1230.31 167.56L1230.39 167.112H1235.71C1237.52 167.112 1238.9 167.42 1239.83 168.036C1240.76 168.652 1241.23 169.632 1241.23 170.976C1241.23 172.058 1240.91 173.001 1240.28 173.804C1239.66 174.606 1238.8 175.222 1237.7 175.652C1236.62 176.081 1235.39 176.296 1234 176.296H1233.05L1232.49 179.516H1237.76L1237.56 180.58H1232.32L1231.71 184.024L1234.03 185.144L1233.95 185.592H1227.2ZM1234.42 168.512L1233.25 175.232H1234.23C1235.55 175.232 1236.63 174.886 1237.45 174.196C1238.29 173.505 1238.71 172.525 1238.71 171.256C1238.71 170.285 1238.4 169.585 1237.78 169.156C1237.19 168.726 1236.32 168.512 1235.18 168.512H1234.42Z" fill="#4C73FF"/>
<rect x="1.5" y="1.97461" width="1273.67" height="911.294" fill="#E2E9FF" stroke="#4C73FF" stroke-width="3"/>
<rect x="1.5" y="894.664" width="1273.67" height="18.6052" fill="#E2E9FF" stroke="#4C73FF" stroke-width="3"/>
<rect x="65.3336" y="1.97461" width="1161.72" height="911.294" fill="#E2E9FF" stroke="#4C73FF" stroke-width="3"/>
<rect x="65.3336" y="1.97656" width="1161.72" height="74.5824" fill="#E2E9FF" stroke="#4C73FF" stroke-width="3"/>
<rect x="65.3336" y="45.6934" width="1161.72" height="13.6949" fill="#E2E9FF" stroke="#4C73FF" stroke-width="3"/>
<rect x="65.3336" y="19.1465" width="1161.72" height="13.6949" fill="#E2E9FF" stroke="#4C73FF" stroke-width="3"/>
<rect x="65.3336" y="746.371" width="883.796" height="147.205" fill="#E2E9FF" stroke="#4C73FF" stroke-width="3"/>
<rect x="65.3336" y="746.371" width="883.796" height="147.205" fill="#E2E9FF" stroke="#4C73FF" stroke-width="3"/>
<rect x="65.3336" y="79.5566" width="1161.72" height="815.042" fill="#E2E9FF" stroke="#4C73FF" stroke-width="3"/>
<rect x="65.3336" y="79.5566" width="883.796" height="311.258" fill="#E2E9FF" stroke="#4C73FF" stroke-width="3"/>
<rect x="65.3336" y="75.6289" width="1161.72" height="818.971" fill="#E2E9FF" stroke="#4C73FF" stroke-width="3"/>
<rect x="65.3336" y="820.02" width="1161.72" height="74.5824" fill="#E2E9FF" stroke="#4C73FF" stroke-width="3"/>
<rect x="65.3336" y="863.736" width="1161.72" height="13.6949" fill="#E2E9FF" stroke="#4C73FF" stroke-width="3"/>
<rect x="65.3336" y="837.189" width="1161.72" height="13.6949" fill="#E2E9FF" stroke="#4C73FF" stroke-width="3"/>
<rect x="66.4857" y="772.342" width="19.5873" height="308.187" transform="rotate(-90 66.4857 772.342)" fill="#E2E9FF" stroke="#4C73FF" stroke-width="3"/>
<rect x="453.943" y="772.342" width="19.5873" height="387.297" transform="rotate(-90 453.943 772.342)" fill="#E2E9FF" stroke="#4C73FF" stroke-width="3"/>
<rect x="839.755" y="772.342" width="19.5873" height="387.297" transform="rotate(-90 839.755 772.342)" fill="#E2E9FF" stroke="#4C73FF" stroke-width="3"/>
<rect x="43.4124" y="894.6" width="19.5873" height="297.421" transform="rotate(180 43.4124 894.6)" fill="#E2E9FF" stroke="#4C73FF" stroke-width="3"/>
<rect x="43.4124" y="596.363" width="19.5873" height="297.421" transform="rotate(-180 43.4124 596.363)" fill="#E2E9FF" stroke="#4C73FF" stroke-width="3"/>
<rect x="43.4124" y="299.396" width="19.5873" height="297.421" transform="rotate(-180 43.4124 299.396)" fill="#E2E9FF" stroke="#4C73FF" stroke-width="3"/>
<rect x="1262.21" y="894.602" width="19.5873" height="297.421" transform="rotate(180 1262.21 894.602)" fill="#E2E9FF" stroke="#4C73FF" stroke-width="3"/>
<rect x="1262.21" y="596.365" width="19.5873" height="297.421" transform="rotate(-180 1262.21 596.365)" fill="#E2E9FF" stroke="#4C73FF" stroke-width="3"/>
<rect x="1262.21" y="299.398" width="19.5873" height="297.421" transform="rotate(-180 1262.21 299.398)" fill="#E2E9FF" stroke="#4C73FF" stroke-width="3"/>
<rect x="66.4857" y="711.207" width="19.5873" height="307.958" transform="rotate(-90 66.4857 711.207)" fill="#E2E9FF" stroke="#4C73FF" stroke-width="3"/>
<rect x="453.943" y="711.207" width="19.5873" height="387.297" transform="rotate(-90 453.943 711.207)" fill="#E2E9FF" stroke="#4C73FF" stroke-width="3"/>
<rect x="839.755" y="711.207" width="19.5873" height="387.297" transform="rotate(-90 839.755 711.207)" fill="#E2E9FF" stroke="#4C73FF" stroke-width="3"/>
<rect x="65.3336" y="316.174" width="19.5873" height="389.105" transform="rotate(-90 65.3336 316.174)" fill="#E2E9FF" stroke="#4C73FF" stroke-width="3"/>
<rect x="454.602" y="316.174" width="19.5873" height="386.966" transform="rotate(-90 454.602 316.174)" fill="#E2E9FF" stroke="#4C73FF" stroke-width="3"/>
<rect x="840.086" y="316.174" width="19.5873" height="386.966" transform="rotate(-90 840.086 316.174)" fill="#E2E9FF" stroke="#4C73FF" stroke-width="3"/>
<rect x="77.9659" y="338.812" width="1149.09" height="311.258" fill="#E2E9FF" stroke="#4C73FF" stroke-width="3"/>
<rect x="108.463" y="351.58" width="255.772" height="285.724" fill="#E2E9FF" stroke="#4C73FF" stroke-width="3"/>
<rect x="667.088" y="351.58" width="255.772" height="285.724" fill="#E2E9FF" stroke="#4C73FF" stroke-width="3"/>
<rect x="938.872" y="351.58" width="255.772" height="285.724" fill="#E2E9FF" stroke="#4C73FF" stroke-width="3"/>
<rect x="374.67" y="338.812" width="279.628" height="555.789" fill="#E2E9FF" stroke="#4C73FF" stroke-width="3"/>
<rect x="387.472" y="350.682" width="254.024" height="532.05" fill="#E2E9FF" stroke="#4C73FF" stroke-width="3"/>
<rect x="521.401" y="651.99" width="110.248" height="221.611" fill="#E2E9FF" stroke="#4C73FF" stroke-width="3"/>
<rect x="531.248" y="661.119" width="90.5529" height="203.35" fill="#E2E9FF" stroke="#4C73FF" stroke-width="3"/>
<rect x="539.126" y="668.424" width="74.7966" height="188.741" fill="#E2E9FF" stroke="#4C73FF" stroke-width="3"/>
<path d="M614.438 668.293L621.332 661.445" stroke="#4C73FF" stroke-width="3"/>
<path d="M539.103 856.84L531.718 864.144" stroke="#4C73FF" stroke-width="3"/>
<path d="M539.596 668.75L531.718 661.445" stroke="#4C73FF" stroke-width="3"/>
<path d="M613.453 856.84L621.824 864.144" stroke="#4C73FF" stroke-width="3"/>
<rect x="521.401" y="359.811" width="110.248" height="221.611" fill="#E2E9FF" stroke="#4C73FF" stroke-width="3"/>
<rect x="531.248" y="368.939" width="90.5529" height="203.35" fill="#E2E9FF" stroke="#4C73FF" stroke-width="3"/>
<rect x="539.126" y="376.244" width="74.7966" height="188.741" fill="#E2E9FF" stroke="#4C73FF" stroke-width="3"/>
<path d="M614.438 376.115L621.332 369.268" stroke="#4C73FF" stroke-width="3"/>
<path d="M539.103 564.66L531.718 571.965" stroke="#4C73FF" stroke-width="3"/>
<path d="M539.596 376.572L531.718 369.268" stroke="#4C73FF" stroke-width="3"/>
<path d="M613.453 564.66L621.824 571.965" stroke="#4C73FF" stroke-width="3"/>
<rect x="397.32" y="651.986" width="110.248" height="221.611" fill="#E2E9FF" stroke="#4C73FF" stroke-width="3"/>
<rect x="407.168" y="661.115" width="90.5529" height="203.35" fill="#E2E9FF" stroke="#4C73FF" stroke-width="3"/>
<rect x="415.046" y="668.422" width="74.7966" height="188.741" fill="#E2E9FF" stroke="#4C73FF" stroke-width="3"/>
<path d="M490.358 668.289L497.251 661.441" stroke="#4C73FF" stroke-width="3"/>
<path d="M415.023 856.836L407.637 864.14" stroke="#4C73FF" stroke-width="3"/>
<path d="M415.515 668.746L407.637 661.441" stroke="#4C73FF" stroke-width="3"/>
<path d="M489.373 856.836L497.743 864.14" stroke="#4C73FF" stroke-width="3"/>
<rect x="397.32" y="359.811" width="110.248" height="221.611" fill="#E2E9FF" stroke="#4C73FF" stroke-width="3"/>
<rect x="407.168" y="368.939" width="90.5529" height="203.35" fill="#E2E9FF" stroke="#4C73FF" stroke-width="3"/>
<rect x="415.046" y="376.244" width="74.7966" height="188.741" fill="#E2E9FF" stroke="#4C73FF" stroke-width="3"/>
<path d="M490.358 376.115L497.251 369.268" stroke="#4C73FF" stroke-width="3"/>
<path d="M415.023 564.66L407.637 571.965" stroke="#4C73FF" stroke-width="3"/>
<path d="M415.515 376.572L407.637 369.268" stroke="#4C73FF" stroke-width="3"/>
<path d="M489.373 564.66L497.743 571.965" stroke="#4C73FF" stroke-width="3"/>
</svg>
