<svg width="1323" height="1092" viewBox="0 0 1323 1092" fill="none" xmlns="http://www.w3.org/2000/svg">
<path d="M3 1086.58V1089.08H5.5H385.896H388.396V1086.58V1065.44V1063.92L387.047 1063.23L284.051 1009.77V675.661H679.259V1009.77L576.263 1063.23L574.914 1063.92V1065.44V1086.58V1089.08H577.414H956.49H958.99V1086.58V1065.44V1063.9L957.608 1063.21L850.682 1009.75V291.669L957.608 238.206L958.99 237.515V235.97V214.837V212.337H956.49H577.414H574.914V214.837V235.97V237.489L576.263 238.189L679.259 291.643V598.016H284.051V291.643L387.047 238.189L388.396 237.489V235.97V214.837V212.337H385.896H5.5H3V214.837V235.97V237.532L4.40341 238.217L113.949 291.685V1009.73L4.40342 1063.2L3 1063.88V1065.44V1086.58Z" stroke="#4C73FF" stroke-width="5"/>
<path d="M949 757.683C1023.37 677.665 1068.86 570.428 1068.86 452.567C1068.86 204.99 868.159 4.29004 620.582 4.29004C373.006 4.29004 172.305 204.99 172.305 452.567C172.305 700.144 373.006 900.844 620.582 900.844C731.605 900.844 833.202 860.483 911.5 793.634" stroke="#4C73FF" stroke-width="7"/>
<mask id="mask0_182_5806" style="mask-type:alpha" maskUnits="userSpaceOnUse" x="5" y="214" width="952" height="873">
<path d="M5.5 1086.58V1065.44L116.449 1011.29V290.124L5.5 235.97V214.837H385.896V235.97L281.551 290.124V600.516H681.759V290.124L577.415 235.97V214.837H956.489V235.97L848.182 290.124V1011.29L956.489 1065.44V1086.58H577.415V1065.44L681.759 1011.29V673.161H281.551V1011.29L385.896 1065.44V1086.58H5.5Z" fill="#4C73FF"/>
</mask>
<g mask="url(#mask0_182_5806)">
<circle cx="623.863" cy="454.506" r="444.777" fill="#4C73FF" stroke="#4C73FF" stroke-width="7"/>
</g>
<mask id="path-5-inside-1_182_5806" fill="white">
<path fill-rule="evenodd" clip-rule="evenodd" d="M933.801 678.799L893.823 732.316L931.266 878.8L1167.07 1054.95L1322.52 846.859L1086.72 670.709L933.801 678.799ZM977.548 751.689C984.497 742.387 982.589 729.213 973.287 722.264C963.985 715.315 950.811 717.222 943.862 726.524C936.913 735.827 938.821 749.001 948.123 755.949C957.425 762.898 970.599 760.991 977.548 751.689Z"/>
</mask>
<path fill-rule="evenodd" clip-rule="evenodd" d="M933.801 678.799L893.823 732.316L931.266 878.8L1167.07 1054.95L1322.52 846.859L1086.72 670.709L933.801 678.799ZM977.548 751.689C984.497 742.387 982.589 729.213 973.287 722.264C963.985 715.315 950.811 717.222 943.862 726.524C936.913 735.827 938.821 749.001 948.123 755.949C957.425 762.898 970.599 760.991 977.548 751.689Z" fill="#9EB3FF" fill-opacity="0.1"/>
<path d="M893.823 732.316L889.817 729.324L888.386 731.239L888.978 733.554L893.823 732.316ZM933.801 678.799L933.537 673.806L931.198 673.93L929.796 675.807L933.801 678.799ZM931.266 878.8L926.422 880.039L926.859 881.749L928.273 882.806L931.266 878.8ZM1167.07 1054.95L1164.07 1058.96L1168.08 1061.95L1171.07 1057.94L1167.07 1054.95ZM1322.52 846.859L1326.52 849.852L1329.51 845.846L1325.51 842.854L1322.52 846.859ZM1086.72 670.709L1089.71 666.704L1088.26 665.621L1086.45 665.716L1086.72 670.709ZM897.828 735.309L937.807 681.792L929.796 675.807L889.817 729.324L897.828 735.309ZM936.11 877.562L898.667 731.078L888.978 733.554L926.422 880.039L936.11 877.562ZM1170.06 1050.94L934.258 874.795L928.273 882.806L1164.07 1058.96L1170.06 1050.94ZM1318.51 843.867L1163.06 1051.96L1171.07 1057.94L1326.52 849.852L1318.51 843.867ZM1083.72 674.715L1319.52 850.865L1325.51 842.854L1089.71 666.704L1083.72 674.715ZM934.066 683.792L1086.98 675.702L1086.45 665.716L933.537 673.806L934.066 683.792ZM970.295 726.269C977.384 731.566 978.838 741.607 973.542 748.696L981.554 754.681C990.155 743.167 987.794 726.86 976.279 718.258L970.295 726.269ZM947.868 729.517C953.164 722.427 963.205 720.973 970.295 726.269L976.279 718.258C964.765 709.656 948.458 712.018 939.856 723.532L947.868 729.517ZM951.115 751.944C944.025 746.648 942.571 736.607 947.868 729.517L939.856 723.532C931.255 735.046 933.616 751.354 945.13 759.955L951.115 751.944ZM973.542 748.696C968.246 755.786 958.205 757.24 951.115 751.944L945.13 759.955C956.645 768.557 972.952 766.196 981.554 754.681L973.542 748.696Z" fill="#4C73FF" mask="url(#path-5-inside-1_182_5806)"/>
<path d="M1116.15 935.672C1111.19 942.313 1106.37 945.555 1101.68 945.397C1100.54 945.382 1099.67 945.149 1099.06 944.698C1098.12 943.996 1097.67 942.716 1097.7 940.857L1097.61 935.305L1098.37 934.299L1100.83 934.57C1103.07 934.784 1105.38 934.419 1107.76 933.477C1110.12 932.417 1112.3 930.546 1114.31 927.862C1117.36 923.77 1118.53 919.262 1117.82 914.34C1117.16 909.35 1114.41 905.051 1109.58 901.443C1106.9 899.438 1103.9 898.137 1100.58 897.541C1097.25 896.827 1093.73 897.336 1090.03 899.068C1086.34 900.8 1082.56 904.249 1078.7 909.415C1076.64 912.166 1074.51 915.645 1072.31 919.853L1040.61 896.173L1064.59 864.071L1072.34 869.86L1051.97 897.131L1067.37 908.633C1068.77 906.336 1070.15 904.281 1071.5 902.47C1076.41 895.895 1081.3 891.448 1086.17 889.127C1091.04 886.807 1095.62 885.994 1099.91 886.689C1104.18 887.267 1107.96 888.784 1111.25 891.24C1116.28 894.999 1119.79 899.397 1121.77 904.434C1123.74 909.354 1124.25 914.545 1123.31 920.007C1122.35 925.352 1119.96 930.573 1116.15 935.672Z" fill="#4C73FF"/>
<path d="M1157.95 879.721C1152.74 886.698 1145.65 889.818 1136.69 889.081C1127.78 888.278 1118.02 883.917 1107.42 875.998C1100.85 871.087 1095.69 865.821 1091.94 860.201C1088.18 854.463 1086.05 848.848 1085.56 843.356C1084.99 837.813 1086.31 832.895 1089.52 828.601C1094.73 821.624 1101.8 818.538 1110.71 819.341C1119.67 820.078 1129.45 824.405 1140.05 832.324C1146.62 837.235 1151.79 842.56 1155.56 848.297C1159.25 853.985 1161.38 859.599 1161.94 865.142C1162.49 870.567 1161.16 875.427 1157.95 879.721ZM1154.8 874.074C1156.45 871.86 1156.72 869.13 1155.59 865.883C1154.46 862.636 1152.22 859.131 1148.86 855.369C1145.49 851.49 1141.29 847.671 1136.25 843.912C1126.12 836.345 1117.24 831.589 1109.6 829.644C1102.01 827.631 1096.43 829.007 1092.87 833.77C1091.17 836.051 1090.86 838.849 1091.93 842.163C1093.01 845.477 1095.21 849.048 1098.51 852.878C1101.82 856.707 1105.99 860.5 1111.02 864.259C1121.15 871.827 1130.07 876.608 1137.78 878.603C1145.47 880.481 1151.14 878.971 1154.8 874.074Z" fill="#4C73FF"/>
<path d="M1197.92 840.906L1190.07 835.042C1188.25 836.503 1186.31 837.771 1184.25 838.847C1182.13 839.873 1180.28 840.529 1178.7 840.817C1176.04 841.442 1173.54 841.505 1171.19 841.007C1168.78 840.459 1166.8 839.609 1165.26 838.456C1163.92 837.454 1163.37 836.366 1163.62 835.193C1163.92 833.953 1164.37 832.931 1164.97 832.126L1167.08 829.308L1167.85 829.106L1170.57 831.135C1172.58 832.639 1174.92 833.497 1177.59 833.71C1180.23 833.805 1182.78 833.046 1185.24 831.434L1157.77 810.911C1151.93 813.97 1146.95 815.529 1142.83 815.587C1138.71 815.645 1134.77 814.271 1131.02 811.465C1128.74 809.761 1126.91 807.511 1125.55 804.717C1124.24 801.856 1123.46 798.767 1123.22 795.451C1122.92 792.086 1123.16 788.819 1123.96 785.652L1115.4 779.262L1118.04 775.74L1125.48 781.303C1126.17 779.828 1126.96 778.487 1127.86 777.279C1128.51 776.407 1129.17 775.594 1129.84 774.839L1122.7 769.501L1125.33 765.979L1132.98 771.692C1135.8 769.309 1138.58 767.83 1141.31 767.255C1146.65 766.123 1150.9 766.734 1154.05 769.09C1155.39 770.092 1155.91 771.213 1155.61 772.453C1155.36 773.626 1154.94 774.615 1154.34 775.42L1152.23 778.238L1151.45 778.44L1148.74 776.411C1145.25 773.804 1141.74 773.535 1138.21 775.602L1163.77 794.696C1170.21 791.669 1175.48 790.219 1179.56 790.345C1183.63 790.354 1187.65 791.837 1191.6 794.794C1195.9 798.001 1198.64 802.032 1199.82 806.887C1201.05 811.675 1200.91 816.482 1199.39 821.308L1207.85 827.623L1205.21 831.145L1197.77 825.582C1196.93 827.258 1195.94 828.868 1194.79 830.411C1194.39 830.948 1193.93 831.493 1193.41 832.047L1200.55 837.384L1197.92 840.906ZM1158.17 797.571C1158.62 797.385 1159.04 797.175 1159.43 796.94L1134.67 778.447C1134 779.202 1133.34 780.016 1132.69 780.888C1131.69 782.229 1130.9 783.571 1130.31 784.912L1151.65 800.849C1153.5 800.041 1155.68 798.949 1158.17 797.571ZM1134.14 800.782C1136.01 802.185 1137.91 803.077 1139.82 803.459C1141.73 803.841 1144.06 803.593 1146.8 802.717L1129.19 789.561C1128.73 794.235 1130.38 797.975 1134.14 800.782ZM1190.06 826.878C1191.26 825.268 1192.22 823.633 1192.94 821.973L1169.89 804.758C1167.75 805.667 1165.16 806.97 1162.11 808.667L1188.68 828.513C1189.15 828.027 1189.61 827.481 1190.06 826.878ZM1188.48 804.849C1186.34 803.245 1184.27 802.227 1182.3 801.795C1180.32 801.364 1177.77 801.704 1174.64 802.815L1194.16 817.399C1194.74 812.29 1192.84 808.106 1188.48 804.849Z" fill="#4C73FF"/>
</svg>
