<svg width="620" height="585" viewBox="0 0 620 585" fill="none" xmlns="http://www.w3.org/2000/svg">
<rect opacity="0.1" y="0.115234" width="620" height="584" fill="#4C73FF"/>
<path d="M157.437 446.362L151.477 430.042C160.314 410.779 166.642 394.569 170.463 381.414C174.541 368.117 176.258 356.62 175.616 346.923C174.974 337.227 172.319 328.135 167.652 319.647C165.247 315.274 162.258 311.056 158.683 306.992C154.967 302.67 162.675 309.515 158.444 305.476L139.92 324.019L109.724 314.819L104.324 297.689L133.261 281.777C128.066 276.594 123.07 271.469 118.274 266.402C113.593 260.936 109.626 255.245 106.373 249.329C100.433 238.526 97.0195 226.836 96.1332 214.259C95.1055 201.425 96.3155 188.7 99.763 176.084C103.468 163.327 109.32 151.735 117.32 141.306C125.436 130.478 135.409 121.812 147.241 115.305C161.645 107.385 174.306 103.605 185.224 103.966C196.001 104.07 229.061 112.733 235.774 116.412C241.008 119.229 244.473 122.18 246.171 125.267C248.151 128.868 247.732 133.285 244.916 138.519L235.076 159.004L232.375 160.489L223.001 152.58C216.07 146.676 183.974 135.807 175.345 133.518C166.973 131.086 167.327 146.816 157.296 152.332C143.921 159.687 142.706 170.03 139.142 183.044C135.438 195.801 120.383 194.392 127.596 207.51C132.405 216.255 139.181 224.924 147.925 233.515C156.927 241.965 165.671 250.556 174.158 259.289L235.055 229.042L263.548 235.493L213.062 280.547C217.884 286.27 195.079 283.628 197.766 288.515C205.262 302.147 208.135 316.814 206.385 332.516C204.635 348.218 226.107 354.753 211.921 378.299L276.62 339.621L273.788 292.437L286.906 285.224L314.715 296.462L309.063 362.984L183.981 456.792L157.437 446.362Z" fill="#9EB3FF"/>
<path d="M157.436 446.362L151.477 430.042C160.314 410.779 166.642 394.569 170.463 381.414C174.541 368.117 176.258 356.62 175.616 346.924C174.974 337.227 172.319 328.135 167.652 319.647C165.247 315.274 162.258 311.056 158.683 306.992C157.998 306.195 157.701 305.778 157.646 305.602C157.626 305.539 157.638 305.507 157.673 305.5L160.604 294.374L133.261 281.778C128.066 276.595 123.07 271.469 118.274 266.402C113.593 260.936 109.626 255.245 106.373 249.329C100.433 238.526 97.0194 226.836 96.1331 214.259C95.1054 201.425 96.3154 188.7 99.7629 176.085C103.468 163.328 109.32 151.735 117.32 141.306C125.435 130.479 137.785 164.591 149.616 158.088C143.209 164.762 141.858 173.128 139.142 183.044C135.438 195.801 120.382 194.393 127.596 207.51C132.405 216.256 139.181 224.924 147.925 233.515C156.927 241.965 165.671 250.556 174.158 259.289L172.51 275.59L196.911 283.093L213.062 280.547C217.884 286.27 195.079 283.628 197.766 288.515C205.262 302.148 208.135 316.815 206.385 332.517C204.635 348.219 226.107 354.753 211.921 378.299L203.149 389.881L183.981 456.792L157.436 446.362Z" fill="url(#paint0_linear_190_5822)"/>
<path d="M131.598 308.299L103.827 297.076L109.583 314.741L137.24 325.239L131.598 308.299Z" fill="#698AFF"/>
<path d="M179.292 441.188L151.521 429.965L157.278 447.63L184.82 457.403L179.292 441.188Z" fill="#9EB3FF"/>
<path d="M301.636 303.036L273.865 291.813L276.219 339.731L303.99 350.954L301.636 303.036Z" fill="#698AFF"/>
<path d="M184.722 457.161L178.763 440.841C187.599 421.577 193.928 405.368 197.748 392.212C201.826 378.915 203.544 367.419 202.902 357.722C202.26 348.026 199.605 338.933 194.937 330.445C192.533 326.073 189.543 321.854 185.968 317.79C182.252 313.469 178.279 309.289 174.048 305.251L137.01 325.618L131.61 308.488L160.546 292.576C155.351 287.393 150.356 282.268 145.559 277.201C140.879 271.735 136.912 266.044 133.659 260.128C127.718 249.325 124.305 237.635 123.419 225.058C122.391 212.223 123.601 199.498 127.049 186.883C130.753 174.126 136.606 162.533 144.605 152.105C152.721 141.277 162.695 132.61 174.527 126.104C188.93 118.184 201.591 114.404 212.51 114.765C223.286 114.869 232.031 116.76 238.744 120.438C243.977 123.255 247.443 126.207 249.14 129.293C251.12 132.894 250.702 137.312 247.885 142.546L238.046 163.031L235.345 164.516L225.97 156.606C219.039 150.703 211.259 146.606 202.631 144.316C194.259 141.885 185.057 143.428 175.026 148.944C161.651 156.298 153.182 166.483 149.619 179.497C145.914 192.254 147.668 205.191 154.881 218.309C159.69 227.054 166.467 235.722 175.211 244.314C184.212 252.763 192.956 261.355 201.443 270.087L264.332 235.506L269.731 252.636L213.788 283.399C218.61 289.122 222.364 294.427 225.052 299.314C232.548 312.946 235.421 327.613 233.671 343.315C231.92 359.017 223.952 378.641 209.765 402.186L303.905 350.42L301.073 303.236L314.191 296.023L336.349 373.783L184.722 457.161Z" fill="#4C73FF"/>
<path d="M351.597 449.358L350.339 432.03C364.116 415.926 374.645 402.071 381.924 390.467C389.49 378.796 394.293 368.211 396.333 358.709C398.373 349.208 398.311 339.736 396.149 330.294C395.034 325.43 393.315 320.554 390.991 315.666C388.602 310.491 394.139 319.186 391.177 314.143L368.281 326.899L341.762 309.776L341.263 291.822L373.453 284.45C369.877 278.041 366.477 271.743 363.253 265.555C360.25 259.016 357.994 252.456 356.487 245.875C353.735 233.858 353.656 221.68 356.25 209.341C358.779 196.717 363.43 184.81 370.203 173.623C377.262 162.37 386.068 152.825 396.619 144.988C407.391 136.799 419.358 131.197 432.52 128.183C448.543 124.513 461.756 124.348 472.157 127.687C482.492 130.74 511.913 148.132 517.36 153.51C521.622 157.653 524.146 161.441 524.932 164.875C525.85 168.881 524.237 173.014 520.093 177.276L505.016 194.28L502.012 194.968L495.164 184.792C490.117 177.215 462.228 157.967 454.557 153.4C447.172 148.767 443.202 163.992 432.043 166.548C417.164 169.955 413.161 179.569 406.168 191.108C399.109 202.361 385.016 196.881 388.358 211.473C390.586 221.202 394.728 231.395 400.782 242.054C407.123 252.647 413.178 263.306 418.947 274.03L485.802 261.631L511.436 275.643L450.536 305.136C453.605 311.961 432.397 303.171 433.642 308.607C437.115 323.772 435.858 338.665 429.872 353.286C423.885 367.907 442.745 380.077 422.649 398.833L495.47 379.367L505.678 333.214L520.27 329.872L543.935 348.301L520.269 410.727L374.267 466.664L351.597 449.358Z" fill="#9EB3FF"/>
<path d="M351.597 449.358L350.339 432.03C364.116 415.926 374.645 402.071 381.924 390.466C389.49 378.796 394.293 368.21 396.333 358.709C398.372 349.208 398.311 339.736 396.149 330.294C395.034 325.43 393.315 320.554 390.991 315.665C390.551 314.712 390.38 314.229 390.375 314.045C390.373 313.979 390.393 313.951 390.429 313.954L396.297 304.057L373.453 284.449C369.877 278.041 366.477 271.743 363.253 265.555C360.25 259.016 357.994 252.456 356.487 245.875C353.735 233.858 353.656 221.68 356.25 209.341C358.779 196.716 363.43 184.81 370.203 173.623C377.262 162.37 386.067 152.825 396.619 144.987C407.391 136.799 409.919 172.989 423.08 169.978C415.089 174.641 411.496 182.315 406.168 191.108C399.109 202.361 385.016 196.881 388.358 211.473C390.586 221.201 394.727 231.395 400.782 242.054C407.123 252.647 413.178 263.306 418.947 274.03L412.895 289.255L434.306 303.158L450.536 305.136C453.605 311.961 432.397 303.171 433.642 308.607C437.115 323.772 435.858 338.665 429.872 353.286C423.885 367.907 442.745 380.077 422.649 398.833L411.038 407.567L374.267 466.664L351.597 449.358Z" fill="url(#paint1_linear_190_5822)"/>
<path d="M364.585 309.5L340.953 291.096L341.648 309.662L365.369 327.338L364.585 309.5Z" fill="#698AFF"/>
<path d="M374.034 450.373L350.402 431.969L351.097 450.535L374.907 467.482L374.034 450.373Z" fill="#9EB3FF"/>
<path d="M529.555 351.039L505.923 332.635L495.055 379.363L518.687 397.767L529.555 351.039Z" fill="#698AFF"/>
<path d="M374.879 467.222L373.62 449.894C387.397 433.789 397.926 419.935 405.206 408.33C412.771 396.66 417.574 386.074 419.614 376.573C421.654 367.071 421.592 357.6 419.43 348.157C418.316 343.293 416.597 338.417 414.273 333.529C411.883 328.355 409.207 323.246 406.245 318.203L365.043 327.639L364.545 309.685L396.734 302.313C393.158 295.905 389.758 289.607 386.534 283.419C383.531 276.879 381.276 270.319 379.768 263.738C377.016 251.721 376.937 239.543 379.532 227.204C382.061 214.58 386.712 202.674 393.484 191.486C400.543 180.233 409.349 170.688 419.9 162.851C430.673 154.662 442.64 149.06 455.802 146.046C471.825 142.376 485.037 142.211 495.438 145.55C505.774 148.603 513.665 152.819 519.113 158.196C523.374 162.339 525.898 166.128 526.684 169.561C527.602 173.567 525.989 177.701 521.846 181.962L506.769 198.966L503.764 199.655L496.917 189.479C491.869 181.902 485.509 175.83 477.838 171.263C470.454 166.63 461.182 165.592 450.023 168.148C435.144 171.556 424.208 179.029 417.215 190.568C410.155 201.821 408.297 214.744 411.639 229.337C413.867 239.065 418.009 249.258 424.064 259.917C430.405 270.51 436.459 281.169 442.228 291.893L512.186 275.87L512.685 293.824L450.452 308.078C453.521 314.903 455.678 321.034 456.923 326.471C460.396 341.635 459.14 356.528 453.153 371.149C447.167 385.771 434.125 402.459 414.029 421.215L518.751 397.23L528.959 351.077L543.552 347.735L543.55 428.59L374.879 467.222Z" fill="#4C73FF"/>
<defs>
<linearGradient id="paint0_linear_190_5822" x1="156.857" y1="454.383" x2="112.52" y2="159.011" gradientUnits="userSpaceOnUse">
<stop stop-color="#698AFF"/>
<stop offset="1" stop-color="#698AFF" stop-opacity="0"/>
</linearGradient>
<linearGradient id="paint1_linear_190_5822" x1="348.842" y1="456.913" x2="387.151" y2="160.699" gradientUnits="userSpaceOnUse">
<stop stop-color="#698AFF"/>
<stop offset="1" stop-color="#698AFF" stop-opacity="0"/>
</linearGradient>
</defs>
</svg>
