<svg width="1417" height="1435" viewBox="0 0 1417 1435" fill="none" xmlns="http://www.w3.org/2000/svg">
<path d="M840.474 619.41L876.777 634.153L861.603 669.435L806.728 692.613L93.6229 921.927L194.392 860.718L840.474 619.41Z" fill="white"/>
<path fill-rule="evenodd" clip-rule="evenodd" d="M879.295 633.118L863.05 670.89L807.392 694.398L94.2061 923.739L92.6347 920.299L193.557 858.996L840.503 617.365L879.295 633.118ZM840.445 621.452L195.227 862.437L108.413 915.17L806.065 690.825L860.157 667.978L874.261 635.184L840.445 621.452Z" fill="#4C73FF"/>
<path d="M888.47 706.637L894.753 667.961L856.724 662.577L808.394 697.4L241.732 1187.3L346.412 1133.05L888.47 706.637Z" fill="white"/>
<path fill-rule="evenodd" clip-rule="evenodd" d="M896.944 666.35L856.233 660.586L807.212 695.906L240.487 1185.86L242.608 1188.99L347.448 1134.66L890.23 707.676L896.944 666.35ZM886.709 705.601L345.377 1131.44L255.193 1178.18L809.575 698.897L857.216 664.572L892.562 669.576L886.709 705.601Z" fill="#4C73FF"/>
<path d="M1078.91 513.548C1089.83 507.059 1103.94 510.649 1110.43 521.567V521.567C1116.92 532.485 1113.33 546.596 1102.41 553.085L1029.53 596.402C1018.61 602.891 1004.5 599.301 998.013 588.383V588.383C991.524 577.465 995.114 563.354 1006.03 556.865L1078.91 513.548Z" fill="#4C73FF"/>
<path fill-rule="evenodd" clip-rule="evenodd" d="M862.166 662.416L998.401 581.444L1000.35 584.718L864.112 665.689L862.166 662.416Z" fill="#4C73FF"/>
<path fill-rule="evenodd" clip-rule="evenodd" d="M847.024 676.891C867.058 710.598 910.624 721.683 944.332 701.649C978.04 681.614 989.124 638.048 969.09 604.34C949.056 570.632 905.489 559.548 871.782 579.582C838.074 599.616 826.989 643.183 847.024 676.891ZM843.75 678.836C864.859 714.352 910.762 726.031 946.278 704.922C981.793 683.813 993.472 637.91 972.363 602.395C951.255 566.879 905.352 555.2 869.836 576.309C834.32 597.418 822.641 643.321 843.75 678.836Z" fill="#4C73FF"/>
<path d="M856.64 716.565C838.619 727.276 815.327 721.35 804.617 703.329C793.906 685.308 799.832 662.016 817.853 651.306C835.874 640.595 859.165 646.521 869.876 664.542C880.587 682.563 874.661 705.854 856.64 716.565Z" fill="#4C73FF"/>
<path fill-rule="evenodd" clip-rule="evenodd" d="M807.89 701.383C817.526 717.596 838.481 722.928 854.694 713.291C870.907 703.655 876.239 682.7 866.602 666.487C856.966 650.274 836.011 644.943 819.798 654.579C803.585 664.215 798.254 685.17 807.89 701.383ZM804.617 703.329C815.327 721.35 838.619 727.276 856.64 716.565C874.661 705.854 880.587 682.563 869.876 664.542C859.165 646.521 835.874 640.595 817.853 651.306C799.832 662.016 793.906 685.308 804.617 703.329Z" fill="#4C73FF"/>
<path d="M279.387 1091.17C265.514 1095.59 252.735 1095.26 241.05 1090.2C229.271 1084.85 221.081 1074.94 216.481 1060.48C211.881 1046.01 213.204 1031.78 220.45 1017.77C227.991 1003.67 243.516 989.636 267.022 975.658L305.985 952.54L295.705 920.219C292.513 910.183 285.658 902.938 275.14 898.482C264.824 893.638 254.5 892.859 244.169 896.145C232.953 899.712 226.117 905.299 223.661 912.906C221.111 920.218 221.432 928.891 224.624 938.927L228.567 951.324L227.057 954.242L204.034 961.565C199.607 962.973 196.273 963.221 194.033 962.308C192.087 961.302 190.27 958.142 188.58 952.829C186.514 946.336 186.321 939.084 187.999 931.075C189.676 923.065 193.702 915.284 200.076 907.732C206.65 899.79 213.802 892.64 221.53 886.281C229.554 879.829 238.731 874.96 249.062 871.674C259.393 868.388 269.898 866.672 280.577 866.525C291.552 866.285 301.265 868.721 309.716 873.834C318.074 878.651 324.225 887.258 328.168 899.655L368.162 1025.4C370.885 1026.81 374.4 1027.64 378.707 1027.89C383.013 1028.15 388.561 1027.2 395.35 1025.04L412.175 1019.69L413.784 1020.15L414.207 1021.48C412.73 1029.1 409.248 1036.54 403.76 1043.81C398.473 1050.7 390.812 1055.73 380.776 1058.92C371.626 1061.83 363.348 1061.87 355.943 1059.02C348.739 1055.79 342.689 1050.56 337.792 1043.34L335.136 1044.19C329.903 1054.3 322.328 1063.7 312.413 1072.38C302.792 1080.97 291.784 1087.23 279.387 1091.17ZM248.199 1040.64C254.02 1058.94 267.999 1064.57 290.137 1057.53C297.221 1055.27 303.922 1052.33 310.242 1048.69C316.856 1044.97 323.981 1039.77 331.615 1033.12L310.773 967.593C288.568 979.531 272.803 989.746 263.478 998.237C254.059 1006.43 248.618 1013.85 247.155 1020.49C245.692 1027.13 246.04 1033.85 248.199 1040.64Z" fill="#4C73FF"/>
<path d="M345.246 596.073L345.013 595.232C346.345 592.447 347.431 590.13 348.272 588.279C349.113 586.428 349.745 584.912 350.167 583.732C350.606 582.524 350.887 581.528 351.008 580.746C351.153 579.957 351.181 579.273 351.093 578.693C351.021 578.085 350.892 577.444 350.706 576.771C350.328 575.402 349.671 574.424 348.735 573.837C347.794 573.228 346.807 573.066 345.774 573.351C344.607 573.674 343.797 574.237 343.342 575.039C342.881 575.819 342.822 576.826 343.163 578.06L343.582 579.575L343.479 579.857L341.93 580.285C341.482 580.409 341.123 580.424 340.855 580.329C340.588 580.234 340.367 579.872 340.193 579.244C340.032 578.66 340.035 578.019 340.204 577.32C340.39 576.592 340.773 575.882 341.355 575.19C341.826 574.625 342.277 574.113 342.706 573.657C343.152 573.171 343.653 572.755 344.209 572.407C344.781 572.032 345.505 571.723 346.38 571.481C347.525 571.164 348.609 571.154 349.633 571.451C350.68 571.741 351.586 572.264 352.35 573.019C353.114 573.773 353.649 574.701 353.953 575.8C354.158 576.541 354.257 577.25 354.251 577.928C354.239 578.584 354.11 579.296 353.864 580.065C353.64 580.827 353.279 581.748 352.78 582.828C352.298 583.88 351.666 585.178 350.886 586.722C350.121 588.238 349.21 590.097 348.152 592.298L356.062 590.11L356.842 586.379L357.381 586.231L358.711 592.349L345.246 596.073Z" fill="#4C73FF"/>
<path d="M445.137 568.808C443.005 569.397 441.123 569.362 439.491 568.702C437.974 568.107 437.085 567.338 436.824 566.396C436.694 565.925 436.714 565.605 436.885 565.437C437.05 565.246 437.334 565.095 437.738 564.984L439.287 564.555L439.588 564.726L439.895 565.837C440.093 566.555 440.601 567.079 441.417 567.409C442.226 567.716 443.349 567.671 444.786 567.274C446.2 566.883 447.181 566.153 447.731 565.083C448.28 564.013 448.366 562.793 447.987 561.424C447.565 559.898 446.829 558.809 445.779 558.158C444.723 557.483 443.14 557.438 441.031 558.021L439.045 558.571L438.635 557.09L439.544 556.838C441.137 556.397 442.335 555.619 443.138 554.503C443.957 553.359 444.158 552.035 443.742 550.531C443.351 549.117 442.755 548.183 441.953 547.729C441.167 547.246 440.213 547.159 439.091 547.469C438.103 547.743 437.384 548.243 436.934 548.972C436.477 549.678 436.372 550.48 436.621 551.378L436.956 552.59L436.761 552.933L435.347 553.324C434.898 553.448 434.543 553.474 434.281 553.402C434.042 553.323 433.851 553.025 433.708 552.509C433.553 551.948 433.583 551.312 433.797 550.601C434.033 549.883 434.498 549.162 435.192 548.439C435.824 547.757 436.446 547.21 437.057 546.8C437.685 546.36 438.47 546.011 439.412 545.75C440.579 545.427 441.677 545.377 442.705 545.6C443.755 545.817 444.65 546.258 445.39 546.923C446.152 547.582 446.669 548.405 446.943 549.393C447.259 550.537 447.113 551.713 446.505 552.92C445.89 554.104 444.887 555.107 443.495 555.926C445.602 555.682 447.312 555.97 448.626 556.79C449.94 557.611 450.818 558.817 451.258 560.411C451.562 561.51 451.486 562.631 451.028 563.772C450.571 564.913 449.828 565.94 448.8 566.852C447.794 567.759 446.574 568.41 445.137 568.808Z" fill="#4C73FF"/>
<path d="M533.603 543.979L533.454 543.44L536.111 541.256L534.836 536.644L525.579 539.204L525.392 538.531L532.676 520.319L533.349 520.133L537.073 533.598L541.079 532.49L541.703 534.745L537.697 535.853L538.972 540.465L542.038 541.066L542.187 541.605L533.603 543.979ZM528.153 536.065L534.212 534.389L531.931 526.142L528.153 536.065Z" fill="#4C73FF"/>
<path d="M627.065 518.492C624.843 519.106 623.23 518.997 622.227 518.163C621.979 517.966 621.827 517.766 621.771 517.564C621.684 517.25 621.802 516.891 622.126 516.488L623.053 515.253L623.389 515.16L623.884 515.639C624.341 516.068 624.911 516.382 625.594 516.579C626.293 516.749 627.091 516.709 627.989 516.461C629.358 516.082 630.383 515.291 631.065 514.088C631.769 512.878 631.898 511.466 631.451 509.85C631.203 508.952 630.765 508.156 630.137 507.459C629.526 506.735 628.667 506.248 627.559 505.998C626.451 505.749 625.033 505.863 623.306 506.341C622.385 506.596 621.325 506.998 620.124 507.547L617.191 496.944L627.93 493.974L628.646 496.566L619.524 499.089L620.949 504.239C621.648 503.973 622.301 503.756 622.907 503.589C625.106 502.981 626.938 502.836 628.404 503.156C629.869 503.475 631.014 504.077 631.838 504.96C632.678 505.815 633.25 506.792 633.554 507.891C634.02 509.574 634.042 511.139 633.62 512.584C633.215 514.001 632.443 515.229 631.305 516.268C630.184 517.279 628.77 518.02 627.065 518.492Z" fill="#4C73FF"/>
<path d="M720.923 492.532C719.465 492.936 718.075 492.934 716.754 492.526C715.456 492.112 714.333 491.372 713.386 490.305C712.439 489.238 711.748 487.919 711.313 486.348C710.662 483.992 710.585 481.706 711.083 479.491C711.598 477.247 712.628 475.162 714.173 473.237C715.712 471.289 717.703 469.579 720.147 468.106L720.417 469.082C717.921 470.715 716.116 472.748 715.001 475.182C713.909 477.61 713.567 480.217 713.975 483.003C714.352 482.005 714.92 481.135 715.681 480.393C716.436 479.629 717.397 479.085 718.564 478.763C719.754 478.434 720.875 478.425 721.928 478.738C722.98 479.051 723.879 479.636 724.623 480.493C725.384 481.321 725.935 482.353 726.276 483.587C726.593 484.732 726.631 485.917 726.39 487.143C726.143 488.347 725.574 489.434 724.683 490.405C723.815 491.37 722.561 492.079 720.923 492.532ZM714.427 485.161C714.893 486.844 715.459 488.149 716.126 489.076C716.809 489.974 717.53 490.572 718.289 490.869C719.064 491.138 719.822 491.17 720.562 490.965C721.482 490.711 722.183 490.275 722.665 489.659C723.147 489.043 723.437 488.346 723.537 487.57C723.652 486.765 723.601 485.97 723.384 485.184C722.472 481.885 720.635 480.618 717.875 481.381C717 481.623 716.248 482.048 715.619 482.657C715.013 483.26 714.581 483.971 714.325 484.791C714.356 484.903 714.39 485.026 714.427 485.161Z" fill="#4C73FF"/>
<path d="M805.316 468.83C805.477 467.577 805.632 466.435 805.782 465.403C805.954 464.365 806.142 463.299 806.346 462.203C806.55 461.108 806.81 459.864 807.126 458.473C807.435 457.058 807.817 455.382 808.272 453.445C808.749 451.501 809.343 449.15 810.054 446.393L798.845 449.493L798.128 446.901L811.929 443.084L812.115 443.757C811.758 445.523 811.376 447.417 810.969 449.438C810.561 451.459 810.192 453.53 809.861 455.651C809.529 457.772 809.276 459.871 809.102 461.948C808.944 463.997 808.939 465.943 809.086 467.787L805.316 468.83Z" fill="#4C73FF"/>
<path d="M904.433 441.777C903.176 442.125 901.95 442.234 900.755 442.106C899.56 441.977 898.517 441.614 897.627 441.014C896.759 440.409 896.179 439.579 895.887 438.524C895.688 437.806 895.623 437.087 895.689 436.368C895.773 435.621 896.046 434.82 896.511 433.967C896.992 433.085 897.736 432.106 898.743 431.03C897.013 430.542 895.731 429.967 894.895 429.304C894.082 428.635 893.505 427.684 893.164 426.449C892.878 425.417 892.928 424.377 893.315 423.328C893.701 422.279 894.316 421.359 895.161 420.57C896.022 419.752 897.002 419.191 898.102 418.887C899.269 418.564 900.403 418.516 901.505 418.743C902.629 418.964 903.6 419.42 904.42 420.111C905.239 420.803 905.798 421.687 906.095 422.764C906.35 423.684 906.196 424.657 905.634 425.682C905.066 426.685 904.208 427.731 903.06 428.822C904.988 429.327 906.483 429.929 907.545 430.625C908.607 431.322 909.331 432.366 909.716 433.757C909.995 434.767 910.027 435.712 909.812 436.593C909.596 437.474 909.212 438.269 908.659 438.978C908.1 439.664 907.443 440.256 906.687 440.755C905.947 441.226 905.196 441.566 904.433 441.777ZM895.837 424.587C896.011 425.215 896.281 425.756 896.649 426.21C897.016 426.664 897.588 427.074 898.365 427.439C899.136 427.781 900.21 428.124 901.585 428.469C902.295 427.717 902.802 426.972 903.106 426.236C903.426 425.471 903.468 424.662 903.232 423.81C902.829 422.351 902.18 421.359 901.285 420.833C900.414 420.301 899.394 420.197 898.227 420.519C897.307 420.774 896.611 421.268 896.137 422.003C895.664 422.738 895.564 423.599 895.837 424.587ZM898.736 436.903C899.133 438.339 899.825 439.355 900.812 439.952C901.792 440.527 902.91 440.64 904.167 440.293C905.424 439.945 906.321 439.346 906.859 438.497C907.397 437.648 907.505 436.639 907.182 435.473C906.94 434.597 906.5 433.922 905.861 433.446C905.245 432.965 904.439 432.584 903.443 432.303C902.47 432.017 901.336 431.714 900.04 431.396C899.432 432.169 899.006 432.854 898.761 433.453C898.532 434.024 898.422 434.586 898.43 435.139C898.454 435.664 898.556 436.252 898.736 436.903Z" fill="#4C73FF"/>
<path d="M988.952 418.402L988.682 417.425C991.177 415.793 992.971 413.763 994.063 411.335C995.178 408.901 995.531 406.291 995.123 403.505C994.746 404.503 994.181 405.384 993.426 406.148C992.665 406.89 991.701 407.422 990.534 407.745C989.322 408.08 988.19 408.092 987.137 407.779C986.106 407.46 985.211 406.886 984.45 406.058C983.706 405.201 983.163 404.155 982.822 402.921C982.505 401.776 982.47 400.602 982.717 399.398C982.958 398.172 983.524 397.074 984.415 396.102C985.306 395.131 986.559 394.422 988.175 393.975C989.656 393.566 991.046 393.568 992.344 393.982C993.642 394.396 994.765 395.136 995.712 396.203C996.66 397.27 997.35 398.588 997.785 400.159C998.437 402.516 998.505 404.816 997.99 407.06C997.492 409.275 996.473 411.357 994.934 413.304C993.389 415.23 991.395 416.929 988.952 418.402ZM985.714 401.324C986.626 404.622 988.463 405.89 991.223 405.127C992.098 404.885 992.839 404.462 993.445 403.86C994.074 403.251 994.517 402.537 994.773 401.717C994.742 401.605 994.708 401.481 994.671 401.347C994.205 399.664 993.631 398.373 992.948 397.475C992.281 396.548 991.571 395.947 990.818 395.672C990.06 395.375 989.299 395.331 988.536 395.542C987.638 395.791 986.937 396.226 986.433 396.849C985.951 397.465 985.653 398.176 985.537 398.981C985.438 399.757 985.497 400.538 985.714 401.324Z" fill="#4C73FF"/>
<path d="M1064.73 397.081L1064.58 396.543L1067.23 394.358L1062.51 377.292L1057.44 381.883L1057.12 380.705L1063.8 373.422L1064.47 373.235L1070.1 393.567L1073.16 394.169L1073.31 394.707L1064.73 397.081Z" fill="#4C73FF"/>
<path d="M1084.92 391.86C1082.58 392.505 1080.49 391.984 1078.65 390.296C1076.83 388.601 1075.43 385.981 1074.45 382.435C1073.84 380.236 1073.6 378.2 1073.73 376.327C1073.88 374.425 1074.37 372.828 1075.2 371.537C1076.02 370.223 1077.15 369.367 1078.58 368.97C1080.92 368.324 1083 368.849 1084.82 370.543C1086.66 372.232 1088.07 374.849 1089.05 378.395C1089.66 380.594 1089.89 382.644 1089.74 384.546C1089.58 386.425 1089.1 388.022 1088.28 389.336C1087.47 390.621 1086.35 391.463 1084.92 391.86ZM1085.18 390.082C1085.93 389.877 1086.45 389.322 1086.75 388.416C1087.06 387.511 1087.16 386.359 1087.07 384.96C1086.99 383.533 1086.71 381.978 1086.25 380.295C1085.31 376.906 1084.17 374.347 1082.82 372.618C1081.49 370.883 1080.03 370.236 1078.44 370.677C1077.68 370.888 1077.13 371.449 1076.8 372.361C1076.48 373.273 1076.35 374.431 1076.43 375.836C1076.5 377.241 1076.77 378.785 1077.24 380.468C1078.17 383.856 1079.32 386.426 1080.67 388.178C1082.04 389.901 1083.55 390.535 1085.18 390.082Z" fill="#4C73FF"/>
<path d="M169.924 644.925C167.59 645.571 165.501 645.05 163.657 643.361C161.836 641.667 160.434 639.046 159.454 635.501C158.846 633.301 158.608 631.265 158.743 629.392C158.893 627.49 159.382 625.894 160.208 624.602C161.028 623.288 162.157 622.433 163.593 622.035C165.927 621.39 168.005 621.914 169.826 623.609C171.67 625.297 173.082 627.914 174.063 631.46C174.671 633.659 174.9 635.71 174.75 637.612C174.593 639.491 174.105 641.088 173.284 642.402C172.48 643.687 171.36 644.528 169.924 644.925ZM170.193 643.148C170.934 642.943 171.457 642.388 171.762 641.482C172.067 640.576 172.171 639.424 172.074 638.026C171.993 636.598 171.72 635.043 171.255 633.36C170.318 629.972 169.175 627.413 167.827 625.684C166.502 623.949 165.042 623.301 163.449 623.742C162.686 623.953 162.141 624.515 161.813 625.427C161.486 626.339 161.359 627.497 161.433 628.902C161.508 630.306 161.778 631.85 162.243 633.533C163.181 636.922 164.326 639.492 165.68 641.243C167.051 642.966 168.555 643.601 170.193 643.148Z" fill="#4C73FF"/>
<path d="M256.841 620.526L256.692 619.987L259.349 617.803L254.629 600.737L249.557 605.328L249.231 604.15L255.914 596.866L256.587 596.68L262.21 617.012L265.276 617.613L265.425 618.152L256.841 620.526Z" fill="#4C73FF"/>
<path fill-rule="evenodd" clip-rule="evenodd" d="M1070.02 271.702L113.713 536.194L158.994 699.913L1115.3 435.421L1070.02 271.702ZM107.853 532.873L155.673 705.773L1121.16 438.742L1073.34 265.842L107.853 532.873Z" fill="#4C73FF"/>
<path fill-rule="evenodd" clip-rule="evenodd" d="M155.453 618.868L135.257 545.059L138.613 544.182L158.809 617.991L155.453 618.868Z" fill="#4C73FF"/>
<path fill-rule="evenodd" clip-rule="evenodd" d="M156.936 587.922L144.507 542.501L147.863 541.623L160.292 587.044L156.936 587.922Z" fill="#4C73FF"/>
<path fill-rule="evenodd" clip-rule="evenodd" d="M166.186 585.363L153.758 539.942L157.114 539.064L169.542 584.485L166.186 585.363Z" fill="#4C73FF"/>
<path fill-rule="evenodd" clip-rule="evenodd" d="M175.437 582.804L163.008 537.383L166.364 536.506L178.793 581.927L175.437 582.804Z" fill="#4C73FF"/>
<path fill-rule="evenodd" clip-rule="evenodd" d="M184.687 580.247L172.259 534.826L175.615 533.948L188.043 579.369L184.687 580.247Z" fill="#4C73FF"/>
<path fill-rule="evenodd" clip-rule="evenodd" d="M198.122 592.817L181.551 532.256L184.907 531.378L201.478 591.939L198.122 592.817Z" fill="#4C73FF"/>
<path fill-rule="evenodd" clip-rule="evenodd" d="M203.229 575.118L190.801 529.697L194.157 528.819L206.585 574.24L203.229 575.118Z" fill="#4C73FF"/>
<path fill-rule="evenodd" clip-rule="evenodd" d="M212.48 572.559L200.052 527.138L203.408 526.261L215.836 571.682L212.48 572.559Z" fill="#4C73FF"/>
<path fill-rule="evenodd" clip-rule="evenodd" d="M221.73 570.001L209.302 524.58L212.658 523.702L225.086 569.123L221.73 570.001Z" fill="#4C73FF"/>
<path fill-rule="evenodd" clip-rule="evenodd" d="M230.981 567.443L218.552 522.022L221.908 521.145L234.337 566.565L230.981 567.443Z" fill="#4C73FF"/>
<path fill-rule="evenodd" clip-rule="evenodd" d="M248.077 593.251L227.881 519.442L231.237 518.564L251.433 592.373L248.077 593.251Z" fill="#4C73FF"/>
<path fill-rule="evenodd" clip-rule="evenodd" d="M249.559 562.304L237.131 516.883L240.487 516.006L252.915 561.427L249.559 562.304Z" fill="#4C73FF"/>
<path fill-rule="evenodd" clip-rule="evenodd" d="M258.81 559.746L246.382 514.325L249.738 513.447L262.166 558.868L258.81 559.746Z" fill="#4C73FF"/>
<path fill-rule="evenodd" clip-rule="evenodd" d="M268.06 557.187L255.632 511.766L258.988 510.889L271.416 556.31L268.06 557.187Z" fill="#4C73FF"/>
<path fill-rule="evenodd" clip-rule="evenodd" d="M277.311 554.629L264.883 509.208L268.239 508.33L280.667 553.751L277.311 554.629Z" fill="#4C73FF"/>
<path fill-rule="evenodd" clip-rule="evenodd" d="M290.746 567.2L274.175 506.638L277.531 505.761L294.102 566.322L290.746 567.2Z" fill="#4C73FF"/>
<path fill-rule="evenodd" clip-rule="evenodd" d="M295.853 549.501L283.425 504.08L286.781 503.202L299.209 548.623L295.853 549.501Z" fill="#4C73FF"/>
<path fill-rule="evenodd" clip-rule="evenodd" d="M305.104 546.942L292.675 501.521L296.031 500.644L308.46 546.064L305.104 546.942Z" fill="#4C73FF"/>
<path fill-rule="evenodd" clip-rule="evenodd" d="M314.354 544.383L301.926 498.963L305.282 498.085L317.71 543.506L314.354 544.383Z" fill="#4C73FF"/>
<path fill-rule="evenodd" clip-rule="evenodd" d="M323.605 541.825L311.176 496.404L314.532 495.526L326.961 540.947L323.605 541.825Z" fill="#4C73FF"/>
<path fill-rule="evenodd" clip-rule="evenodd" d="M340.701 567.633L320.505 493.824L323.861 492.946L344.057 566.755L340.701 567.633Z" fill="#4C73FF"/>
<path fill-rule="evenodd" clip-rule="evenodd" d="M342.183 536.686L329.755 491.265L333.111 490.388L345.539 535.809L342.183 536.686Z" fill="#4C73FF"/>
<path fill-rule="evenodd" clip-rule="evenodd" d="M351.434 534.128L339.005 488.707L342.361 487.829L354.79 533.25L351.434 534.128Z" fill="#4C73FF"/>
<path fill-rule="evenodd" clip-rule="evenodd" d="M360.684 531.57L348.256 486.149L351.612 485.271L364.04 530.692L360.684 531.57Z" fill="#4C73FF"/>
<path fill-rule="evenodd" clip-rule="evenodd" d="M369.935 529.011L357.506 483.591L360.862 482.713L373.291 528.134L369.935 529.011Z" fill="#4C73FF"/>
<path fill-rule="evenodd" clip-rule="evenodd" d="M383.369 541.581L366.798 481.02L370.154 480.143L386.725 540.704L383.369 541.581Z" fill="#4C73FF"/>
<path fill-rule="evenodd" clip-rule="evenodd" d="M388.477 523.883L376.049 478.462L379.405 477.584L391.833 523.005L388.477 523.883Z" fill="#4C73FF"/>
<path fill-rule="evenodd" clip-rule="evenodd" d="M397.728 521.324L385.299 475.903L388.655 475.025L401.083 520.446L397.728 521.324Z" fill="#4C73FF"/>
<path fill-rule="evenodd" clip-rule="evenodd" d="M406.978 518.766L394.55 473.345L397.906 472.468L410.334 517.889L406.978 518.766Z" fill="#4C73FF"/>
<path fill-rule="evenodd" clip-rule="evenodd" d="M416.228 516.208L403.8 470.787L407.156 469.909L419.584 515.33L416.228 516.208Z" fill="#4C73FF"/>
<path fill-rule="evenodd" clip-rule="evenodd" d="M433.324 542.016L413.128 468.207L416.484 467.329L436.68 541.138L433.324 542.016Z" fill="#4C73FF"/>
<path fill-rule="evenodd" clip-rule="evenodd" d="M434.807 511.069L422.379 465.648L425.735 464.771L438.163 510.191L434.807 511.069Z" fill="#4C73FF"/>
<path fill-rule="evenodd" clip-rule="evenodd" d="M444.058 508.51L431.629 463.09L434.985 462.212L447.414 507.633L444.058 508.51Z" fill="#4C73FF"/>
<path fill-rule="evenodd" clip-rule="evenodd" d="M453.308 505.952L440.88 460.531L444.236 459.653L456.664 505.074L453.308 505.952Z" fill="#4C73FF"/>
<path fill-rule="evenodd" clip-rule="evenodd" d="M462.558 503.393L450.13 457.972L453.486 457.095L465.914 502.516L462.558 503.393Z" fill="#4C73FF"/>
<path fill-rule="evenodd" clip-rule="evenodd" d="M475.993 515.964L459.422 455.402L461.939 454.744L478.51 515.305L475.993 515.964Z" fill="#4C73FF"/>
<path fill-rule="evenodd" clip-rule="evenodd" d="M480.265 498.497L467.837 453.076L471.193 452.198L483.621 497.619L480.265 498.497Z" fill="#4C73FF"/>
<path fill-rule="evenodd" clip-rule="evenodd" d="M489.515 495.938L477.087 450.517L480.443 449.64L492.871 495.061L489.515 495.938Z" fill="#4C73FF"/>
<path fill-rule="evenodd" clip-rule="evenodd" d="M498.766 493.38L486.338 447.959L489.694 447.081L502.122 492.502L498.766 493.38Z" fill="#4C73FF"/>
<path fill-rule="evenodd" clip-rule="evenodd" d="M508.016 490.821L495.588 445.4L498.944 444.522L511.372 489.943L508.016 490.821Z" fill="#4C73FF"/>
<path fill-rule="evenodd" clip-rule="evenodd" d="M525.112 516.629L504.916 442.82L508.272 441.942L528.468 515.751L525.112 516.629Z" fill="#4C73FF"/>
<path fill-rule="evenodd" clip-rule="evenodd" d="M526.595 485.682L514.167 440.261L517.523 439.384L529.951 484.805L526.595 485.682Z" fill="#4C73FF"/>
<path fill-rule="evenodd" clip-rule="evenodd" d="M535.845 483.124L523.417 437.703L526.773 436.825L539.201 482.246L535.845 483.124Z" fill="#4C73FF"/>
<path fill-rule="evenodd" clip-rule="evenodd" d="M545.096 480.565L532.668 435.144L536.024 434.267L548.452 479.688L545.096 480.565Z" fill="#4C73FF"/>
<path fill-rule="evenodd" clip-rule="evenodd" d="M554.346 478.008L541.918 432.587L545.274 431.709L557.702 477.13L554.346 478.008Z" fill="#4C73FF"/>
<path fill-rule="evenodd" clip-rule="evenodd" d="M567.781 490.578L551.21 430.016L554.566 429.139L571.137 489.7L567.781 490.578Z" fill="#4C73FF"/>
<path fill-rule="evenodd" clip-rule="evenodd" d="M572.889 472.879L560.46 427.458L563.816 426.58L576.245 472.001L572.889 472.879Z" fill="#4C73FF"/>
<path fill-rule="evenodd" clip-rule="evenodd" d="M582.139 470.32L569.711 424.899L573.067 424.021L585.495 469.442L582.139 470.32Z" fill="#4C73FF"/>
<path fill-rule="evenodd" clip-rule="evenodd" d="M591.39 467.761L578.961 422.341L582.317 421.463L594.746 466.884L591.39 467.761Z" fill="#4C73FF"/>
<path fill-rule="evenodd" clip-rule="evenodd" d="M600.64 465.204L588.212 419.783L591.568 418.905L603.996 464.326L600.64 465.204Z" fill="#4C73FF"/>
<path fill-rule="evenodd" clip-rule="evenodd" d="M617.736 491.012L597.54 417.203L600.896 416.325L621.092 490.134L617.736 491.012Z" fill="#4C73FF"/>
<path fill-rule="evenodd" clip-rule="evenodd" d="M619.219 460.065L606.79 414.644L610.146 413.767L622.575 459.188L619.219 460.065Z" fill="#4C73FF"/>
<path fill-rule="evenodd" clip-rule="evenodd" d="M628.469 457.507L616.041 412.086L619.397 411.208L631.825 456.629L628.469 457.507Z" fill="#4C73FF"/>
<path fill-rule="evenodd" clip-rule="evenodd" d="M637.72 454.948L625.291 409.527L628.647 408.649L641.076 454.07L637.72 454.948Z" fill="#4C73FF"/>
<path fill-rule="evenodd" clip-rule="evenodd" d="M646.97 452.389L634.542 406.968L637.898 406.091L650.326 451.512L646.97 452.389Z" fill="#4C73FF"/>
<path fill-rule="evenodd" clip-rule="evenodd" d="M660.405 464.96L643.834 404.399L647.19 403.521L663.761 464.083L660.405 464.96Z" fill="#4C73FF"/>
<path fill-rule="evenodd" clip-rule="evenodd" d="M665.512 447.261L653.084 401.841L656.44 400.963L668.868 446.384L665.512 447.261Z" fill="#4C73FF"/>
<path fill-rule="evenodd" clip-rule="evenodd" d="M674.763 444.703L662.335 399.282L665.691 398.404L678.119 443.825L674.763 444.703Z" fill="#4C73FF"/>
<path fill-rule="evenodd" clip-rule="evenodd" d="M684.013 442.144L671.585 396.723L674.941 395.846L687.369 441.267L684.013 442.144Z" fill="#4C73FF"/>
<path fill-rule="evenodd" clip-rule="evenodd" d="M693.264 439.586L680.835 394.165L684.191 393.287L696.62 438.708L693.264 439.586Z" fill="#4C73FF"/>
<path fill-rule="evenodd" clip-rule="evenodd" d="M710.36 465.394L690.164 391.585L693.52 390.707L713.716 464.516L710.36 465.394Z" fill="#4C73FF"/>
<path fill-rule="evenodd" clip-rule="evenodd" d="M711.842 434.447L699.414 389.026L702.77 388.148L715.198 433.569L711.842 434.447Z" fill="#4C73FF"/>
<path fill-rule="evenodd" clip-rule="evenodd" d="M721.093 431.889L708.665 386.468L712.021 385.591L724.449 431.012L721.093 431.889Z" fill="#4C73FF"/>
<path fill-rule="evenodd" clip-rule="evenodd" d="M730.343 429.331L717.915 383.91L721.271 383.032L733.699 428.453L730.343 429.331Z" fill="#4C73FF"/>
<path fill-rule="evenodd" clip-rule="evenodd" d="M739.594 426.772L727.166 381.351L730.521 380.474L742.95 425.895L739.594 426.772Z" fill="#4C73FF"/>
<path fill-rule="evenodd" clip-rule="evenodd" d="M753.029 439.342L736.458 378.781L739.813 377.903L756.385 438.465L753.029 439.342Z" fill="#4C73FF"/>
<path fill-rule="evenodd" clip-rule="evenodd" d="M758.136 421.643L745.708 376.222L749.064 375.345L761.492 420.766L758.136 421.643Z" fill="#4C73FF"/>
<path fill-rule="evenodd" clip-rule="evenodd" d="M767.387 419.085L754.958 373.664L758.314 372.786L770.743 418.207L767.387 419.085Z" fill="#4C73FF"/>
<path fill-rule="evenodd" clip-rule="evenodd" d="M776.637 416.527L764.209 371.106L767.565 370.229L779.993 415.649L776.637 416.527Z" fill="#4C73FF"/>
<path fill-rule="evenodd" clip-rule="evenodd" d="M785.887 413.968L773.459 368.548L776.815 367.67L789.243 413.091L785.887 413.968Z" fill="#4C73FF"/>
<path fill-rule="evenodd" clip-rule="evenodd" d="M802.984 439.776L782.788 365.967L786.144 365.09L806.34 438.899L802.984 439.776Z" fill="#4C73FF"/>
<path fill-rule="evenodd" clip-rule="evenodd" d="M804.466 408.83L792.038 363.409L795.394 362.531L807.822 407.952L804.466 408.83Z" fill="#4C73FF"/>
<path fill-rule="evenodd" clip-rule="evenodd" d="M813.717 406.271L801.288 360.85L804.644 359.973L817.073 405.394L813.717 406.271Z" fill="#4C73FF"/>
<path fill-rule="evenodd" clip-rule="evenodd" d="M822.967 403.713L810.539 358.292L813.895 357.414L826.323 402.835L822.967 403.713Z" fill="#4C73FF"/>
<path fill-rule="evenodd" clip-rule="evenodd" d="M832.218 401.154L819.789 355.733L823.145 354.855L835.574 400.276L832.218 401.154Z" fill="#4C73FF"/>
<path fill-rule="evenodd" clip-rule="evenodd" d="M845.652 413.725L829.081 353.164L832.437 352.286L849.008 412.847L845.652 413.725Z" fill="#4C73FF"/>
<path fill-rule="evenodd" clip-rule="evenodd" d="M850.76 396.026L838.332 350.605L841.688 349.728L854.116 395.148L850.76 396.026Z" fill="#4C73FF"/>
<path fill-rule="evenodd" clip-rule="evenodd" d="M860.01 393.467L847.582 348.047L850.938 347.169L863.366 392.59L860.01 393.467Z" fill="#4C73FF"/>
<path fill-rule="evenodd" clip-rule="evenodd" d="M869.261 390.909L856.833 345.488L860.188 344.61L872.617 390.031L869.261 390.909Z" fill="#4C73FF"/>
<path fill-rule="evenodd" clip-rule="evenodd" d="M878.511 388.35L866.083 342.929L869.439 342.052L881.867 387.473L878.511 388.35Z" fill="#4C73FF"/>
<path fill-rule="evenodd" clip-rule="evenodd" d="M895.607 414.158L875.411 340.349L878.767 339.472L898.963 413.281L895.607 414.158Z" fill="#4C73FF"/>
<path fill-rule="evenodd" clip-rule="evenodd" d="M897.09 383.213L884.662 337.792L888.018 336.914L900.446 382.335L897.09 383.213Z" fill="#4C73FF"/>
<path fill-rule="evenodd" clip-rule="evenodd" d="M906.34 380.654L893.912 335.233L897.268 334.355L909.696 379.776L906.34 380.654Z" fill="#4C73FF"/>
<path fill-rule="evenodd" clip-rule="evenodd" d="M915.591 378.095L903.163 332.674L906.519 331.797L918.947 377.218L915.591 378.095Z" fill="#4C73FF"/>
<path fill-rule="evenodd" clip-rule="evenodd" d="M924.841 375.537L912.413 330.116L915.769 329.238L928.197 374.659L924.841 375.537Z" fill="#4C73FF"/>
<path fill-rule="evenodd" clip-rule="evenodd" d="M938.276 388.107L921.705 327.546L925.061 326.668L941.632 387.229L938.276 388.107Z" fill="#4C73FF"/>
<path fill-rule="evenodd" clip-rule="evenodd" d="M943.384 370.408L930.955 324.987L934.311 324.109L946.74 369.53L943.384 370.408Z" fill="#4C73FF"/>
<path fill-rule="evenodd" clip-rule="evenodd" d="M952.634 367.85L940.206 322.429L943.562 321.552L955.99 366.973L952.634 367.85Z" fill="#4C73FF"/>
<path fill-rule="evenodd" clip-rule="evenodd" d="M961.885 365.292L949.456 319.871L952.812 318.993L965.241 364.414L961.885 365.292Z" fill="#4C73FF"/>
<path fill-rule="evenodd" clip-rule="evenodd" d="M971.135 362.733L958.707 317.312L962.063 316.435L974.491 361.855L971.135 362.733Z" fill="#4C73FF"/>
<path fill-rule="evenodd" clip-rule="evenodd" d="M988.231 388.541L968.035 314.732L971.391 313.854L991.587 387.663L988.231 388.541Z" fill="#4C73FF"/>
<path fill-rule="evenodd" clip-rule="evenodd" d="M989.714 357.595L977.285 312.174L979.802 311.516L992.231 356.937L989.714 357.595Z" fill="#4C73FF"/>
<path fill-rule="evenodd" clip-rule="evenodd" d="M998.128 355.267L985.7 309.846L989.056 308.969L1001.48 354.39L998.128 355.267Z" fill="#4C73FF"/>
<path fill-rule="evenodd" clip-rule="evenodd" d="M1007.38 352.709L994.951 307.288L998.307 306.41L1010.73 351.831L1007.38 352.709Z" fill="#4C73FF"/>
<path fill-rule="evenodd" clip-rule="evenodd" d="M1016.63 350.15L1004.2 304.729L1007.56 303.852L1019.99 349.272L1016.63 350.15Z" fill="#4C73FF"/>
<path fill-rule="evenodd" clip-rule="evenodd" d="M1030.06 362.721L1013.49 302.16L1016.85 301.282L1033.42 361.843L1030.06 362.721Z" fill="#4C73FF"/>
<path fill-rule="evenodd" clip-rule="evenodd" d="M1035.17 345.022L1022.74 299.601L1026.1 298.724L1038.53 344.145L1035.17 345.022Z" fill="#4C73FF"/>
<path fill-rule="evenodd" clip-rule="evenodd" d="M1044.42 342.464L1031.99 297.043L1035.35 296.165L1047.78 341.586L1044.42 342.464Z" fill="#4C73FF"/>
<path fill-rule="evenodd" clip-rule="evenodd" d="M1053.67 339.905L1041.24 294.484L1044.6 293.606L1057.03 339.027L1053.67 339.905Z" fill="#4C73FF"/>
<path fill-rule="evenodd" clip-rule="evenodd" d="M1062.92 337.346L1050.49 291.925L1053.85 291.048L1066.28 336.469L1062.92 337.346Z" fill="#4C73FF"/>
<path fill-rule="evenodd" clip-rule="evenodd" d="M1080.02 363.154L1059.82 289.345L1063.18 288.468L1083.37 362.277L1080.02 363.154Z" fill="#4C73FF"/>
<path d="M133.088 503.465L131.896 499.155L140.461 494.558L154.472 374.125L158.092 373.124L231.788 469.107L242.752 468.487L243.945 472.797L207.223 482.956L206.03 478.646L220.065 472.35L195.471 439.807L151.853 451.874L147.999 492.287L163.963 490.283L165.156 494.593L133.088 503.465ZM152.597 445.172L191.388 434.44L157.95 390.053L152.597 445.172Z" fill="#4C73FF"/>
<path d="M255.321 469.65L254.367 466.202L263.519 459.03L277.911 339.976L283.945 338.307L357.259 432.911L369.361 434.389L370.315 437.837L330.145 448.95L329.191 445.502L342.777 436.918L320.029 407.019L277.445 418.8L273.518 456.263L289.538 456.472L290.491 459.92L255.321 469.65ZM278.479 409.79L314.512 399.822L283.913 359.66L278.479 409.79Z" fill="#4C73FF"/>
<path d="M381.762 434.67L380.999 431.912L390.459 423.17L405.215 304.758L412.973 302.612L485.656 396.277L498.924 399.288L499.687 402.047L456.931 413.875L456.168 411.117L469.718 401.058L447.964 372.74L406.069 384.33L402.135 419.754L418.239 421.61L419.002 424.368L381.762 434.67ZM407.411 373.751L441.548 364.307L412.747 326.617L407.411 373.751Z" fill="#4C73FF"/>
<path d="M510.549 399.042L509.786 396.283L519.073 387.589L534.001 269.13L543.483 266.507L616.511 360.077L629.78 363.088L630.543 365.846L585.028 378.438L584.265 375.679L597.767 365.448L576.424 337.944L534.874 349.439L530.922 384.126L547.025 385.981L547.788 388.74L510.549 399.042ZM536.216 338.86L570.008 329.511L541.618 292.636L536.216 338.86Z" fill="#4C73FF"/>
<path d="M640.001 363.23L639.238 360.471L648.305 351.652L663.625 233.27L675.694 229.931L749.067 323.406L762.507 326.369L763.27 329.128L713.618 342.864L712.855 340.105L726.184 329.922L705.645 303.31L664.268 314.756L660.498 348.093L676.477 350.169L677.24 352.927L640.001 363.23ZM665.61 304.177L699.056 294.924L670.934 258.346L665.61 304.177Z" fill="#4C73FF"/>
<path d="M770.627 327.092L769.864 324.334L778.759 315.563L794.424 197.085L809.596 192.888L883.314 286.267L896.754 289.23L897.517 291.989L843.037 307.06L842.274 304.302L855.556 293.946L835.915 268.57L795.055 279.874L791.249 311.736L807.276 313.984L808.039 316.742L770.627 327.092ZM796.397 269.294L829.327 260.185L801.835 224.545L796.397 269.294Z" fill="#4C73FF"/>
<path d="M902.588 290.586L901.825 287.827L910.328 278.979L926.73 160.483L946.557 154.998L1021.01 248.359L1034.58 251.102L1035.34 253.861L973.274 271.031L972.511 268.272L985.573 257.792L967.194 234.294L927.024 245.407L923.335 275.01L939.237 277.477L940 280.236L902.588 290.586ZM928.366 234.827L960.606 225.908L933.936 191.898L928.366 234.827Z" fill="#4C73FF"/>
<path d="M1160.64 577.417L1172.76 536.711L1280.6 568.838L1268.47 609.544L1264.19 608.268L1256.48 574.094L1236.96 568.279L1211.58 653.5L1228.59 666.862L1227.45 670.671L1161.51 651.025L1162.65 647.217L1184.2 645.344L1209.59 560.123L1190.07 554.307L1164.92 578.694L1160.64 577.417Z" fill="#4C73FF"/>
<path d="M1088.14 783.966C1095.04 771.29 1108.57 765.012 1108.57 765.012L1123.44 806.582C1123.44 806.582 1099.36 840.866 1087.58 853.435C1082.3 859.067 1070 862.481 1070 862.481L1025.57 837.02C1025.57 837.02 1051.98 830.185 1064.75 819.262C1077.31 808.511 1080.24 798.491 1088.14 783.966Z" fill="white" stroke="#4C73FF" stroke-width="5"/>
<path d="M1198.18 821.367C1200.43 807.113 1193.53 793.891 1193.53 793.891L1156.41 817.787C1156.41 817.787 1154.61 859.646 1156.29 876.791C1157.04 884.474 1164.71 894.674 1164.71 894.674L1215.46 901.564C1215.46 901.564 1198.68 880.046 1195.21 863.607C1191.8 847.426 1195.59 837.7 1198.18 821.367Z" fill="white" stroke="#4C73FF" stroke-width="5"/>
<path d="M1160.33 769.658L1170.84 632.093C1170.84 632.093 1133.44 636.214 1113.79 694.019C1097.46 742.073 1111.99 749.602 1111.99 749.602L1160.33 769.658Z" fill="white" stroke="#4C73FF" stroke-width="5"/>
<path d="M1150.58 766.345L1226.09 650.872C1226.09 650.872 1253.23 676.929 1233.58 734.734C1217.25 782.788 1201.13 779.901 1201.13 779.901L1150.58 766.345Z" fill="white" stroke="#4C73FF" stroke-width="5"/>
<circle cx="1152.31" cy="776.513" r="45.605" transform="rotate(18.7724 1152.31 776.513)" fill="#4C73FF"/>
<path d="M1014.13 831.061C1028.68 834.713 1032.04 840.736 1043.57 847.284C1055.1 853.832 1068.64 855.806 1074.61 869.487C1081.71 885.764 973.66 900.885 918.058 936.177C859.914 973.084 831.006 1001.42 787.795 1055.05C753.431 1097.69 713.666 1174.1 713.666 1174.1C713.666 1174.1 723.189 1079.45 750.51 1026.84C781.997 966.209 814.097 938.498 869.663 898.752C920.336 862.506 999.57 827.408 1014.13 831.061Z" fill="white" stroke="#4C73FF" stroke-width="5"/>
<path d="M1224.01 902.398C1210.25 896.424 1203.91 899.151 1190.78 897.318C1177.65 895.484 1165.71 888.796 1152.64 896.008C1137.09 904.587 1213.55 982.419 1236.12 1044.28C1259.74 1108.98 1265.39 1149.06 1266.97 1217.92C1268.23 1272.67 1253.2 1357.48 1253.2 1357.48C1253.2 1357.48 1303.33 1276.63 1313.72 1218.27C1325.7 1151.01 1317.14 1109.48 1297.3 1044.1C1279.21 984.484 1237.78 908.372 1224.01 902.398Z" fill="white" stroke="#4C73FF" stroke-width="5"/>
</svg>
